<?xml version="1.0" encoding="utf-8"?>
<svg width="746" height="519" viewBox="0 0 746 519" fill="none" xmlns="http://www.w3.org/2000/svg">
  <g>
    <path d="M0 11.2881C0 5.05383 66.5464 0 148.636 0C230.725 0 297.271 5.05383 297.271 11.2881C297.271 17.5223 230.725 22.5762 148.636 22.5762C66.5464 22.5762 0 17.5223 0 11.2881Z" fill="#E6E6E6" fill-rule="evenodd" transform="translate(0 496.424)" />
    <path d="M0 79.1271C25.8671 68.1256 58.0849 75.0961 89.5491 79.9338C89.8419 74.0753 93.3909 66.9452 89.6733 62.8579C85.1567 57.8923 85.5725 52.6748 88.2903 47.4273C95.2403 34.0086 85.2829 19.7303 75.2289 7.85812C70.6328 2.44296 63.7288 -0.454636 56.6444 0.0582199C56.6444 0.0582199 38.0203 1.38844 38.0203 1.38844C28.7397 2.0513 20.8456 8.40513 18.2151 17.3292C18.2151 17.3292 18.2151 17.3292 18.2151 17.3292C13.7681 23.377 11.3879 29.408 12.8865 35.4076C6.22549 39.9594 5.10635 45.4538 8.09957 51.6478C10.6377 55.5478 10.6106 59.3441 7.9841 63.0352C4.53465 67.7412 1.89268 72.9886 0.166512 78.5621C0.166512 78.5621 0 79.1271 0 79.1271Z" fill="#2F2E41" transform="translate(113.614 36.03)" />
    <path d="M544.88 34.3334C544.88 34.3334 17.6774 34.3334 17.6774 34.3334C7.91443 34.3334 -3.05176e-05 26.4194 0 16.657C0 16.657 0 16.657 0 16.657C191.111 -5.55237 378.63 -5.55237 562.557 16.657C562.557 16.657 562.557 16.657 562.557 16.657C562.557 26.4194 554.643 34.3334 544.88 34.3334C544.88 34.3334 544.88 34.3334 544.88 34.3334Z" fill="#2F2E41" transform="translate(183.443 414.334)" />
    <path d="M562.557 375.362L0 374.323L65.1984 264.625L65.5104 264.105C65.5104 264.105 65.5104 22.345 65.5104 22.345C65.5104 16.4167 67.865 10.7331 72.0562 6.54281C76.2474 2.35258 81.9318 -0.000991821 87.8585 0C87.8585 0 471.581 0 471.581 0C477.508 -0.000488281 483.192 2.35355 487.383 6.54415C491.574 10.7348 493.928 16.4186 493.927 22.345C493.927 22.345 493.927 265.769 493.927 265.769L562.557 375.362Z" fill="#3F3D56" transform="translate(183.443 56.668)" />
    <path d="M7.27893 1.52588e-05C3.26074 0.00452423 0.0045166 3.26057 0 7.2785C0 7.2785 0 227.713 0 227.713C0.00460815 231.731 3.26065 234.987 7.27875 234.991C7.27875 234.991 395.142 234.991 395.142 234.991C399.16 234.987 402.416 231.731 402.421 227.713C402.421 227.713 402.421 7.2785 402.421 7.2785C402.416 3.26078 399.16 0.00476837 395.142 0C395.142 0 7.27893 1.52588e-05 7.27893 1.52588e-05Z" fill="#FFFFFF" transform="translate(263.511 72.265)" />
    <path d="M23.2095 0C21.9919 0.0020752 20.8861 0.710388 20.3753 1.81555C20.3753 1.81555 0.285629 45.4865 0.285629 45.4865C-0.158783 46.4523 -0.0807343 47.5779 0.492752 48.473C1.06625 49.3682 2.05615 49.9096 3.11931 49.9096C3.11931 49.9096 425.594 49.9096 425.594 49.9096C426.676 49.9096 427.68 49.3498 428.248 48.4301C428.816 47.5103 428.868 46.3619 428.384 45.3951C428.384 45.3951 406.547 1.72421 406.547 1.72421C406.022 0.6651 404.94 -0.00344849 403.758 6.10352e-05C403.758 6.10352e-05 23.2095 0 23.2095 0Z" fill="#2F2E41" transform="translate(249.206 336.37)" />
    <path d="M0 4.67903C0 2.09488 2.095 0 4.67932 0C7.26364 0 9.35864 2.09488 9.35864 4.67903C9.35864 7.26319 7.26364 9.35806 4.67932 9.35806C2.095 9.35806 0 7.26319 0 4.67903Z" fill="#FFFFFF" fill-rule="evenodd" transform="translate(458.482 59.268)" />
    <path d="M8.15872 0C6.74893 0.00177002 5.51501 0.947388 5.14682 2.30804C5.14682 2.30804 0.107483 21.0242 0.107483 21.0242C-0.14505 21.9612 0.053009 22.9625 0.64325 23.7328C1.23355 24.5032 2.14886 24.9549 3.11938 24.9549C3.11938 24.9549 98.9555 24.9549 98.9555 24.9549C99.9646 24.9549 100.911 24.4667 101.496 23.6447C102.082 22.8227 102.233 21.7684 101.902 20.815C101.902 20.815 95.4237 2.09888 95.4237 2.09888C94.9884 0.842896 93.8052 0.000518799 92.4758 6.10352e-05C92.4758 6.10352e-05 8.15872 0 8.15872 0Z" fill="#2F2E41" transform="translate(413.477 394.598)" />
    <path d="M428.729 0L428.729 4.15869L0 4.15869L0.322662 3.63943L0.322662 0L428.729 0L428.729 0Z" fill="#2F2E41" fill-rule="evenodd" transform="translate(248.641 317.135)" />
    <path d="M0 72.7849C0 32.5869 32.5889 0 72.7893 0C112.99 0 145.579 32.5869 145.579 72.7849C145.579 112.983 112.99 145.57 72.7893 145.57C32.5889 145.57 0 112.983 0 72.7849Z" fill="#045E04" fill-rule="evenodd" transform="translate(592.623 0)" />
    <path d="M64.4705 44.7108C64.4705 44.7108 4.15942 44.7108 4.15942 44.7108C1.86322 44.7085 0.00231934 42.8477 0 40.5516C0 40.5516 0 4.15913 0 4.15913C0.00244141 1.86325 1.86316 0.00252533 4.15936 0C4.15936 0 64.4705 0 64.4705 0C66.7667 0.00245285 68.6275 1.86314 68.6299 4.15915C68.6299 4.15915 68.6299 40.5516 68.6299 40.5516C68.6275 42.8479 66.7665 44.7086 64.4703 44.7108C64.4703 44.7108 64.4705 44.7108 64.4705 44.7108ZM4.15967 4.15915L4.15967 40.5516L64.4738 40.5516L64.4708 4.15912L4.15967 4.15915Z" fill="#FFFFFF" transform="translate(631.097 59.788)" />
    <path d="M37.4344 37.4322L0 37.4322C0 37.4322 0 20.7957 0 20.7957C0 8.74577 7.87195 0 18.7172 0C29.5625 0 37.4344 8.74578 37.4344 20.7957C37.4344 20.7957 37.4344 37.4322 37.4344 37.4322ZM4.15942 33.2731L33.2751 33.2731C33.2751 33.2731 33.2751 20.7957 33.2751 20.7957C33.2751 11.0004 27.2889 4.15912 18.7173 4.15912C10.1458 4.15912 4.15948 11.0005 4.15948 20.7957C4.15948 20.7957 4.15942 33.2731 4.15942 33.2731Z" fill="#FFFFFF" transform="translate(646.695 26.515)" />
    <path d="M0 4.15914C0 1.86211 1.86224 0 4.15936 0C6.45654 0 8.31879 1.86211 8.31879 4.15914C8.31879 6.45617 6.45654 8.31828 4.15936 8.31828C1.86224 8.31828 0 6.45617 0 4.15914Z" fill="#FFFFFF" fill-rule="evenodd" transform="translate(661.252 76.944)" />
    <path d="M305.306 85.4532C305.306 85.4532 5.55103 85.4532 5.55103 85.4532C2.48676 85.4496 0.00357056 82.9666 0 79.9025C0 79.9025 0 5.55064 0 5.55064C0.00350952 2.48676 2.4866 0.00367737 5.55084 0C5.55084 0 305.306 0 305.306 0C308.37 0.0035553 310.853 2.48659 310.857 5.55066C310.857 5.55066 310.857 79.9025 310.857 79.9025C310.853 82.9664 308.37 85.4495 305.306 85.4532C305.306 85.4532 305.306 85.4532 305.306 85.4532ZM5.55106 2.22029C3.71246 2.22231 2.22247 3.7122 2.22049 5.55067C2.22049 5.55067 2.22049 79.9025 2.22049 79.9025C2.22238 81.7408 3.71225 83.2308 5.55087 83.2329C5.55087 83.2329 305.306 83.2329 305.306 83.2329C307.144 83.2309 308.634 81.741 308.636 79.9025C308.636 79.9025 308.636 5.55064 308.636 5.55064C308.634 3.71233 307.144 2.22234 305.306 2.22021C305.306 2.22021 5.55106 2.22029 5.55106 2.22029Z" fill="#E6E6E6" transform="translate(309.293 147.034)" />
    <path d="M0 22.6105C0 10.1231 10.1237 0 22.6118 0C35.1 0 45.2237 10.1231 45.2237 22.6105C45.2237 35.0979 35.1 45.221 22.6118 45.221C10.1237 45.221 0 35.0979 0 22.6105Z" fill="#E6E6E6" fill-rule="evenodd" transform="translate(338.808 164.297)" />
    <path d="M3.77579 0C2.42767 -0.00254822 1.18091 0.715149 0.506073 1.88216C-0.168701 3.04916 -0.168701 4.4877 0.506134 5.65471C1.18091 6.82172 2.42773 7.53938 3.77585 7.53683C3.77585 7.53683 181.44 7.53683 181.44 7.53683C183.521 7.53683 185.209 5.84966 185.209 3.76842C185.209 1.68718 183.521 0 181.44 0C181.44 0 3.77579 0 3.77579 0Z" fill="#E6E6E6" transform="translate(409.867 171.834)" />
    <path d="M3.76868 0C1.68735 0 0 1.68718 0 3.76842C6.10352e-05 5.84964 1.68735 7.53682 3.76868 7.53682C3.76868 7.53682 80.2181 7.53682 80.2181 7.53682C82.2995 7.53682 83.9868 5.84964 83.9868 3.76842C83.9868 1.68718 82.2995 0 80.2181 0C80.2181 0 3.76868 0 3.76868 0Z" fill="#E6E6E6" transform="translate(409.874 194.445)" />
    <path d="M56.1134 32.3047L0.701416 61.7625C0.701416 61.7625 0 37.2144 0 37.2144C18.0861 34.1953 35.2931 28.9389 51.2035 20.3814C51.2035 20.3814 56.9988 6.06424 56.9988 6.06424C58.2836 2.89038 61.1457 0.62825 64.5307 0.111389C67.9156 -0.405457 71.3224 0.899399 73.4959 3.54518C73.4959 3.54518 73.4959 3.54518 73.4959 3.54518C76.7395 7.49371 76.3658 13.2808 72.6413 16.7794C72.6413 16.7794 56.1134 32.3047 56.1134 32.3047Z" fill="#FFB8B8" transform="translate(191.79 163.664)" />
    <path d="M0.383522 37.1483C-0.434105 34.1497 0.0688705 30.9447 1.76574 28.3407C1.76574 28.3407 13.9381 9.66098 13.9381 9.66098C19.9025 0.508179 31.8309 -2.6387 41.5345 2.38086C41.5345 2.38086 41.5345 2.38086 41.5345 2.38086C36.4188 11.0882 37.1319 18.7267 43.3012 25.365C33.724 30.04 24.8725 36.074 17.0209 43.2801C14.1126 45.2626 10.4252 45.7169 7.12258 44.4998C3.81992 43.2825 1.30947 40.544 0.383522 37.1483C0.383522 37.1483 0.383522 37.1483 0.383522 37.1483Z" fill="#2F2E41" transform="translate(112.126 328.899)" />
    <path d="M102.125 81.8293C98.3792 88.0719 91.6529 91.9137 84.3726 91.9689C84.3726 91.9689 3.50705 92.5815 3.50705 92.5815L0 72.2417L35.7723 61.721L5.61131 38.5757L38.5779 0C38.5779 0 98.4554 55.8049 98.4554 55.8049C105.668 62.5265 107.197 73.3756 102.125 81.8293C102.125 81.8293 102.125 81.8293 102.125 81.8293Z" fill="#2F2E41" transform="translate(148.302 259.794)" />
    <path d="M36.0778 277.043C36.0778 277.043 17.1395 277.043 17.1395 277.043C0.135704 160.496 -17.1725 43.6223 33.9735 0C33.9735 0 94.2954 9.81924 94.2954 9.81924L86.5798 61.0196L52.9118 99.5952L36.0778 277.043Z" fill="#2F2E41" transform="translate(103.106 203.684)" />
    <path d="M39.0339 33.5078C36.0352 34.3255 32.8299 33.8228 30.2256 32.1262C30.2256 32.1262 9.66262 29.3623 9.66262 29.3623C0.508896 23.3989 -2.63883 11.4713 2.38039 1.76801C2.38039 1.76801 2.38039 1.76801 2.38039 1.76801C11.0886 6.88293 18.7276 6.16934 25.3658 0C30.0562 9.47015 37.7843 8.89249 45.165 16.8709C47.1478 19.779 47.6025 23.4661 46.3854 26.7687C45.1683 30.0712 42.4297 32.5817 39.0339 33.5078C39.0339 33.5078 39.0339 33.5078 39.0339 33.5078Z" fill="#2F2E41" transform="translate(116.797 473.621)" />
    <path d="M0 39.9784C5.82471 28.0564 6.30435 14.7907 3.50705 0.70137C3.50705 0.70137 27.3552 0 27.3552 0C28.1025 17.5204 30.3632 33.8889 35.0709 48.3949C35.0709 48.3949 0 39.9784 0 39.9784Z" fill="#FFB8B8" transform="translate(149.004 77.437)" />
    <path d="M65.6652 126.324C40.1349 143.72 22.096 126.919 8.33014 100.998C10.243 85.1364 7.14575 66.1548 1.40944 45.5298C-3.87911 26.6714 6.13161 6.90044 24.4627 0C24.4627 0 24.4627 0 24.4627 0C24.4627 0 54.6236 12.6248 54.6236 12.6248C80.2337 33.4987 85.2745 56.1094 75.6661 79.9568C75.6661 79.9568 65.6652 126.324 65.6652 126.324Z" fill="#045E04" transform="translate(128.048 108.297)" />
    <path d="M62.9384 28.7564L34.8817 43.4853L84.6823 72.943C84.6823 72.943 91.6118 90.0346 91.6118 90.0346C92.5464 92.3401 92.4926 94.9283 91.4627 97.1929C90.4329 99.4574 88.5176 101.199 86.1656 102.01C86.1656 102.01 86.1656 102.01 86.1656 102.01C83.4839 102.935 80.5238 102.551 78.1667 100.973C75.8095 99.3948 74.327 96.8043 74.1604 93.9727C74.1604 93.9727 73.4596 82.0609 73.4596 82.0609C73.4596 82.0609 10.1637 61.1744 10.1637 61.1744C5.84251 59.7486 2.41746 56.4143 0.876163 52.1332C0.876163 52.1332 0.876163 52.1332 0.876163 52.1332C-1.40415 45.7993 0.877602 38.7246 6.42894 34.9164C6.42894 34.9164 57.3271 0 57.3271 0L62.9384 28.7564Z" fill="#FFB8B8" transform="translate(57.307 114.61)" />
    <path d="M37.8765 38.9665C26.1751 33.8388 15.5348 39.409 2.10424 43.8761C2.10424 43.8761 0 6.70322 0 6.70322C13.3359 -0.404228 26.0508 -2.32048 37.8765 3.1964C37.8765 3.1964 37.8765 38.9665 37.8765 38.9665Z" fill="#045E04" transform="translate(110.426 107.205)" />
    <path d="M0 22.39C0 10.0244 10.025 0 22.3914 0C34.7578 0 44.7828 10.0244 44.7828 22.39C44.7828 34.7557 34.7578 44.7801 22.3914 44.7801C10.025 44.7801 0 34.7557 0 22.39Z" fill="#FFB8B8" fill-rule="evenodd" transform="translate(139.908 51.07)" />
    <path d="M49.8588 20.0907C27.6893 22.2619 10.7964 18.6364 0 8.31341C0 8.31341 0 0 0 0L47.9773 0C47.9773 0 49.8588 20.0907 49.8588 20.0907Z" fill="#2F2E41" transform="translate(139.228 50.544)" />
  </g>
</svg>