<?xml version="1.0" encoding="utf-8"?>
<svg width="645.05" height="611.004" viewBox="0 0 645.05 611.004" fill="none" xmlns="http://www.w3.org/2000/svg">
  <g>
    <path d="M233.134 116.496C233.16 154.619 214.508 190.329 183.205 212.094C178.861 215.133 174.313 217.868 169.591 220.279C168.025 221.082 166.447 221.845 164.84 222.568C163.393 223.231 161.936 223.854 160.459 224.446C142.141 231.86 122.242 234.514 102.62 232.159C99.2245 231.757 95.8722 231.205 92.5632 230.502C92.4229 230.472 92.2718 230.442 92.1315 230.412C85.202 228.947 78.4245 226.839 71.8869 224.115C17.8775 201.705 -11.1581 142.76 4.00382 86.3064C19.1657 29.8527 73.831 -6.63176 131.807 1.00845C189.783 8.64866 233.121 58.0482 233.127 116.501C233.127 116.501 233.134 116.496 233.134 116.496Z" fill="#F1F1F1" />
    <path d="M57.8589 10.2935C57.7584 10.173 57.648 10.0625 57.5376 9.95205C44.5784 -3.12717 23.5013 -3.34216 10.2778 9.47002C10.2076 9.53027 10.1473 9.59052 10.087 9.65077C10.0065 9.72108 9.93636 9.79132 9.86572 9.86167C3.5461 16.1629 -0.00382996 24.7197 0 33.6421C0 33.6421 0 54.7311 0 54.7311C0.00367737 57.2252 2.02554 59.2464 4.52087 59.2502C4.52087 59.2502 62.7919 59.2502 62.7919 59.2502C65.2873 59.2464 67.3092 57.2254 67.313 54.7311C67.313 54.7311 67.313 33.6421 67.313 33.6421C67.3215 24.9265 63.9301 16.5505 57.8593 10.2938C57.8593 10.2938 57.8589 10.2935 57.8589 10.2935Z" fill="#000000" transform="translate(80.192 84.461)" />
    <path d="M0 24.6652C0 11.043 11.0477 0 24.6758 0C38.3039 0 49.3516 11.043 49.3516 24.6652C49.3516 38.2873 38.3039 49.3303 24.6758 49.3303C11.0477 49.3303 0 38.2873 0 24.6652Z" fill="#FFB7B7" fill-rule="evenodd" transform="translate(90.524 94.172)" />
    <path d="M52.7064 27.5111C52.7064 27.5111 49.7929 7.16525 49.7929 7.16525C49.703 6.54066 49.3843 5.97168 48.8987 5.5685C48.7349 5.43726 48.556 5.326 48.3659 5.23711C33.4464 -1.74236 18.3165 -1.74236 3.39697 5.21702C3.19783 5.30901 3.0119 5.42722 2.8441 5.5685C2.78425 5.61872 2.72392 5.67897 2.66357 5.73923C2.26478 6.151 2.01689 6.68536 1.96011 7.25564C1.96011 7.25564 0.0111008 27.6317 0.0111008 27.6317C-0.0553131 28.3362 0.178139 29.0361 0.654228 29.5599C1.03368 29.9774 1.54377 30.2535 2.1009 30.3432C2.23632 30.3719 2.37454 30.3854 2.51297 30.3833C2.51297 30.3833 7.45588 30.3833 7.45588 30.3833C8.43112 30.38 9.31797 29.8177 9.73648 28.9372C9.73648 28.9372 11.8763 24.3579 11.8763 24.3579C12.1576 23.7479 12.8103 23.3992 13.474 23.5043C14.1377 23.6095 14.6505 24.1428 14.7294 24.8098C14.7294 24.8098 15.1513 28.184 15.1513 28.184C15.3133 29.4378 16.3787 30.378 17.6434 30.3833C17.6434 30.3833 50.2246 30.3833 50.2246 30.3833C50.6511 30.3854 51.0706 30.2745 51.4403 30.062C51.6976 29.922 51.9288 29.7385 52.1236 29.5197C52.6001 28.9663 52.8128 28.2334 52.7064 27.5111C52.7064 27.5111 52.7064 27.5111 52.7064 27.5111Z" fill="#000000" transform="translate(88.43 89.226)" />
    <path d="M21.4297 11.2174C21.4297 11.2174 28.4222 34.6162 28.4222 34.6162C24.0786 37.6548 19.5298 40.3895 14.8086 42.8008C13.2418 43.6041 11.6641 44.3674 10.057 45.0904C10.057 45.0904 2.81288 14.0494 2.81288 14.0494L0 2.00848L18.0841 0L21.4297 11.2174Z" fill="#FFB7B7" transform="translate(154.789 177.473)" />
    <path d="M21.1084 0L20.5055 31.6135C20.5055 31.6135 20.2445 45.6025 20.2445 45.6025C13.3151 44.1377 6.53752 42.0297 0 39.306C0 39.306 2.40131 9.35953 2.40131 9.35953L3.00421 1.80765L21.1084 0Z" fill="#FFB7B7" transform="translate(71.894 184.804)" />
    <path d="M106.576 33.1601L88.4112 35.8816L88.6325 38.8642C88.6325 38.8642 90.8223 68.9111 90.8223 68.9111C72.5042 76.3248 52.6053 78.9783 32.9834 76.6236C29.5877 76.2219 26.2354 75.6696 22.9264 74.9666C24.4133 68.7203 25.6996 63.0965 24.1121 61.9918C23.6338 61.657 23.1804 61.2878 22.7557 60.8872C15.3511 53.8274 18.0841 37.8901 18.0841 37.8901C18.0841 37.8901 4.65152 38.6333 4.65152 38.6333C4.65152 38.6333 0 38.8943 0 38.8943C0 38.8943 2.00935 6.75864 11.0514 6.75864C11.0514 6.75864 22.1028 6.75864 22.1028 6.75864C22.1028 6.75864 75.3505 1.73744 75.3505 1.73744C75.3505 1.73744 90.4206 -3.28377 94.4393 3.74591C96.5492 7.43149 100.306 15.2445 103.411 21.8524C106.224 27.8577 108.505 32.8689 108.505 32.8689C108.505 32.8689 106.576 33.1601 106.576 33.1601Z" fill="#045E04" transform="translate(69.643 155.531)" />
    <path d="M233.085 117.775C232.703 155.089 214.438 189.955 183.974 211.523C183.713 211.704 183.441 211.895 183.17 212.086C182.889 212.286 182.597 212.487 182.306 212.678C180.618 213.843 178.897 214.958 177.142 216.022C174.67 217.528 172.142 218.944 169.556 220.27C169.476 220.31 169.386 220.35 169.305 220.391C167.819 221.154 166.319 221.877 164.805 222.56C164.754 222.58 164.714 222.6 164.664 222.62C164.312 222.781 163.94 222.951 163.579 223.102C160.776 224.347 157.912 225.482 154.999 226.486C152.517 227.36 149.999 228.143 147.444 228.836C142.218 230.277 136.897 231.344 131.52 232.03C126.934 232.619 122.318 232.934 117.696 232.974C117.313 232.984 116.932 232.984 116.55 232.984C114.029 232.984 111.517 232.903 109.035 232.743C106.865 232.602 104.715 232.411 102.585 232.15C99.2999 231.759 96.0548 231.236 92.8598 230.554C92.7195 230.533 92.5787 230.503 92.4379 230.473C92.3275 230.453 92.2068 230.423 92.0965 230.403C88.8813 229.73 85.7167 228.907 82.6124 227.963C79.6887 227.079 76.8186 226.081 74.0021 224.97C73.279 224.689 72.5657 224.408 71.8519 224.106C70.0741 223.363 68.3159 222.59 66.5877 221.756C66.0854 221.525 65.5933 221.284 65.1008 221.043C63.4329 220.23 61.7856 219.376 60.178 218.473C58.2388 217.398 56.3333 216.27 54.4615 215.088C52.1004 213.602 49.7893 212.035 47.549 210.378C6.70618 180.384 -10.0621 127.443 6.0687 79.4184C22.1995 31.3934 67.5312 -0.706443 118.207 0.0118144C182.112 0.899166 233.775 53.8952 233.085 117.775Z" fill="#F1F1F1" transform="translate(411.958 0.004)" />
    <path d="M9.48404 69.8047C6.26889 69.1318 3.10428 68.3084 0 67.3644C0 67.3644 10.6595 1.29547 10.6595 1.29547L21.7006 0.954041L41.7239 0.321365C41.7239 0.321365 51.9918 0 51.9918 0C51.9918 0 59.2757 31.9951 64.8313 68.238C59.6057 69.6788 54.2842 70.7459 48.9071 71.4315C44.322 72.0209 39.7058 72.3362 35.0831 72.3755C34.7009 72.3856 34.3193 72.3856 33.9376 72.3856C31.4161 72.3856 28.9045 72.3052 26.4227 72.1445C24.2524 72.0039 22.1028 71.8132 19.9728 71.5521C16.6875 71.1604 13.4424 70.6382 10.2474 69.9553C10.1071 69.9352 9.96628 69.9051 9.8255 69.875C9.71512 69.8549 9.59442 69.8248 9.48404 69.8047Z" fill="#CBCBCB" transform="translate(494.57 160.602)" />
    <path d="M28.643 70.598C28.5027 70.5779 28.3619 70.5478 28.2211 70.5176C28.1108 70.4976 27.9901 70.4674 27.8797 70.4473C24.6646 69.7745 21.4999 68.951 18.3956 68.007C15.4719 67.1233 12.6018 66.1257 9.78528 65.0144C9.06219 64.7332 8.34891 64.452 7.63513 64.1508C5.85733 63.4076 4.09915 62.6344 2.37088 61.8008C1.86856 61.5699 1.37653 61.3289 0.884003 61.0878C0.884003 61.0878 0 11.619 0 11.619C0 11.619 27.1262 0 27.1262 0C27.1262 0 27.2165 0.723053 40.0962 1.59674C42.5475 9.59041 28.643 70.598 28.643 70.598Z" fill="#045E04" transform="translate(476.174 159.96)" />
    <path d="M56.9766 11.86L51.8629 38.7234C51.8629 38.7234 52.3447 63.016 52.3447 63.016C50.8583 63.7791 49.3582 64.5022 47.8442 65.1851C47.7937 65.2052 47.7535 65.2253 47.7035 65.2454C47.3517 65.4061 46.9799 65.5768 46.6183 65.7274C43.8153 66.9727 40.9518 68.1075 38.0385 69.1118C35.5567 69.9855 33.0383 70.7688 30.4833 71.4617C25.2577 72.9024 19.9362 73.9696 14.5591 74.6552C9.97394 75.2446 5.35773 75.5598 0.735046 75.5992C0.735046 75.5992 0.202271 32.5474 0.202271 32.5474C-0.922546 18.6688 2.80475 9.49008 7.37579 3.54497C31.7391 0.291245 31.1966 0 31.1966 0C31.1966 0 57.0268 11.6191 57.0268 11.6191L56.9766 11.86Z" fill="#045E04" transform="translate(528.918 157.379)" />
    <path d="M21.3792 3.87631C21.3792 3.87631 19.5406 53.3954 19.5406 53.3954C18.8175 53.1142 18.1042 52.833 17.3905 52.5317C15.6127 51.7886 13.8545 51.0153 12.1262 50.1818C11.6239 49.9508 11.1319 49.7098 10.6393 49.4688C8.97144 48.6554 7.3241 47.8018 5.71652 46.898C3.77734 45.8234 1.8718 44.6953 0 43.5137C0 43.5137 9.7554 0 9.7554 0L21.3792 3.87631Z" fill="#045E04" transform="translate(466.419 171.579)" />
    <path d="M21.1482 42.4593C20.8872 42.6401 20.6159 42.8309 20.3447 43.0217C20.0635 43.2226 19.7722 43.4234 19.4808 43.6142C17.7927 44.7791 16.0714 45.8938 14.3166 46.9583C11.8452 48.4647 9.31659 49.8806 6.73102 51.2063C6.65106 51.2464 6.5603 51.2866 6.47986 51.3268C4.94836 52.1131 3.40222 52.8568 1.84143 53.5579C1.84143 53.5579 1.83862 53.5561 1.83862 53.5561L0 3.86633L11.1118 0.170731L11.6239 0C11.6239 0 21.1482 42.4593 21.1482 42.4593Z" fill="#045E04" transform="translate(574.783 169.068)" />
    <path d="M20.5912 56.2892C5.40073 51.8376 -3.29395 35.8882 1.17108 20.6652C5.63605 5.44216 21.57 -3.28978 36.7605 1.16184C51.9509 5.61346 60.6457 21.5629 56.1806 36.7859C51.7156 52.0089 35.7817 60.7409 20.5912 56.2892Z" fill="#9F616A" fill-rule="evenodd" transform="translate(500.057 86.468)" />
    <path d="M3.75385 30.874C3.75385 30.874 -5.26477 20.2568 4.65567 17.5823C4.65567 17.5823 7.36127 -9.16237 30.8098 3.3185C30.8098 3.3185 63.2769 -2.03044 59.6694 16.6909C59.6694 16.6909 67.7861 11.8033 65.0805 24.2842C65.0805 24.2842 59.8479 44.3887 59.8479 44.3887C59.8479 44.3887 62.375 31.1082 54.2582 29.3252C54.2582 29.3252 49.749 26.6507 49.749 26.6507C49.749 26.6507 37.1229 39.1316 18.1837 23.9762C18.1837 23.9762 10.067 22.0398 10.9688 30.0632C11.8706 38.0866 3.75385 42.0524 3.75385 42.0524C3.75385 42.0524 3.75385 30.874 3.75385 30.874Z" fill="#000000" transform="translate(496.113 80.343)" />
    <path d="M233.124 116.498C233.15 154.621 214.498 190.331 183.195 212.096C182.914 212.297 182.623 212.498 182.331 212.689C180.643 213.854 178.922 214.968 177.167 216.033C174.696 217.539 172.167 218.955 169.581 220.281C168.015 221.084 166.437 221.847 164.83 222.57C164.428 222.751 164.016 222.942 163.604 223.113C160.801 224.358 157.937 225.493 155.024 226.497C147.414 229.164 139.544 231.022 131.545 232.04C126.581 232.679 121.58 232.997 116.575 232.994C114.054 232.994 111.542 232.914 109.06 232.753C106.89 232.613 104.74 232.422 102.61 232.161C99.1843 231.749 95.7984 231.197 92.4631 230.484C92.3527 230.464 92.232 230.434 92.1216 230.414C85.1921 228.949 78.4146 226.841 71.877 224.117C70.0992 223.374 68.341 222.6 66.6127 221.767C64.4327 220.743 62.2961 219.648 60.203 218.483C10.4543 191.009 -12.214 131.673 6.55159 78.0467C25.3172 24.4204 80.0438 -7.85596 136.078 1.65506C192.113 11.1661 233.113 59.6905 233.117 116.503C233.117 116.503 233.124 116.498 233.124 116.498Z" fill="#F1F1F1" transform="translate(205.968 351.482)" />
    <path d="M0 26.0128C0 11.6463 11.6513 0 26.024 0C40.3966 0 52.048 11.6463 52.048 26.0128C52.048 40.3792 40.3966 52.0255 26.024 52.0255C11.6513 52.0255 0 40.3792 0 26.0128Z" fill="#FFB8B8" fill-rule="evenodd" transform="translate(293.324 444.664)" />
    <path d="M10.1473 80.1684C6.72119 79.7567 3.33533 79.2043 0 78.4913C0 78.4913 3.16461 7.31082 3.16461 7.31082L3.61691 6.83887L10.0968 0L30.7029 0L38.3081 7.36108L38.9512 7.99377L55.2168 23.5695C55.2168 23.5695 62.561 74.5046 62.561 74.5046C54.9512 77.172 47.0812 79.0301 39.0817 80.048C34.1174 80.6861 29.1173 81.0048 24.1122 81.002C21.5907 81.002 19.079 80.9217 16.5972 80.761C14.427 80.6203 12.2773 80.4295 10.1473 80.1684Z" fill="#CBCBCB" transform="translate(298.438 503.47)" />
    <path d="M6.76144 63.2771C4.58136 62.2528 2.44479 61.1581 0.351746 59.9933C0.140717 40.7118 0 27.9078 0 27.9078C0 27.9078 2.45135 26.4115 2.45135 26.4115C2.48059 26.3963 2.51077 26.3828 2.5416 26.3713C2.5416 26.3713 30.361 9.48001 30.361 9.48001L36.1982 0L36.2286 0.341461C36.2286 0.341461 37.9466 20.3258 37.9466 20.3258C43.1202 37.9796 46.8861 56.0154 49.2091 74.2639C47.0388 74.1233 44.8892 73.9325 42.7592 73.6714C39.3331 73.2596 35.9472 72.7072 32.6118 71.9942C32.5015 71.9742 32.3808 71.9441 32.2704 71.924C25.3409 70.4591 18.5634 68.351 12.0257 65.6273C10.2479 64.8839 8.48969 64.1106 6.76144 63.2771Z" fill="#045E04" transform="translate(265.826 509.967)" />
    <path d="M25.9166 68.007C18.3068 70.6744 10.4369 72.5325 2.43729 73.5504C1.32861 67.0688 0.921021 60.4865 1.22156 53.9176C3.39182 19.2412 -1.61145 0 0.558807 0C0.558807 0 1.66357 0.863617 1.66357 0.863617L15.3174 11.6491L33.2906 18.237L33.301 18.237L45.6685 22.7661L47.8486 23.5695C47.8486 23.5695 47.8486 24.6039 47.8486 24.6039C47.8584 28.179 47.8785 40.6919 48.0596 57.543C45.5881 59.0493 43.0596 60.4653 40.474 61.7909C38.9072 62.5943 37.3295 63.3575 35.7224 64.0806C35.3202 64.2614 34.9086 64.4522 34.4965 64.6228C31.6935 65.868 28.8301 67.0028 25.9166 68.007Z" fill="#045E04" transform="translate(335.082 509.967)" />
    <path d="M8.38168 28.1321C7.86765 15.1659 27.6207 22.4994 44.1264 21.2625C60.6322 20.0256 57.1382 42.91 57.1382 42.91C57.1382 42.91 58.329 41.5496 60.8784 30.5049C63.4279 19.4603 57.6392 8.45377 57.6392 8.45377C55.9344 -3.1521 46.7465 0.567596 46.7465 0.567596C51.1713 2.2894 50.3214 5.97095 50.3214 5.97095C46.576 -0.592957 37.3881 3.12674 37.3881 3.12674C25.134 -4.55966 12.7147 5.56235 12.7147 5.56235C-2.08875 8.92065 6.59293 20.6882 6.59293 20.6882C-8.29449 28.2083 6.68466 44.9797 6.68466 44.9797C6.68466 44.9797 8.89575 41.0984 8.38168 28.1321Z" fill="#000000" transform="translate(288.044 433.836)" />
    <path d="M0 25.5278C0.382156 16.7005 0.552872 11.0064 0.35173 10.2131C-0.682861 6.07562 13.4429 0.532227 14.7287 0.0401611C14.7579 0.0249634 14.7881 0.0115356 14.8189 0C14.8189 0 17.6927 1.5365 17.6927 1.5365C17.6927 1.5365 19.0388 36.9058 19.0388 36.9058C16.8587 35.8815 14.7221 34.7868 12.6291 33.6219C8.24866 31.1997 4.03009 28.496 0 25.5277C0 25.5277 0 25.5278 0 25.5278Z" fill="#045E04" transform="translate(253.549 536.339)" />
    <path d="M18.0841 39.4666C15.6126 40.973 13.0841 42.3889 10.4985 43.7145C8.93167 44.5179 7.35403 45.2811 5.74695 46.0042C5.3447 46.1849 4.93311 46.3757 4.52103 46.5464C4.52103 46.5464 0 1.9281 0 1.9281C0 1.9281 2.64218 0 2.64218 0C2.64218 0 2.88351 0.0602417 3.31522 0.160645C3.31522 0.160645 3.32553 0.160645 3.32553 0.160645C5.44525 0.682861 11.9555 2.41022 15.6931 4.68976C16.5273 5.16229 17.2664 5.7854 17.8732 6.52753C18.2425 6.97052 18.426 7.53912 18.3853 8.11432C18.2651 9.27924 20.2745 20.3259 23.2483 36.1226C21.5602 37.2874 19.8388 38.4021 18.0841 39.4666Z" fill="#045E04" transform="translate(365.058 528.044)" />
    <path d="M43.217 193.663L0 193.663L0 0L2.00935 0L2.00935 191.654L43.217 191.654L43.217 193.663L43.217 193.663Z" fill="#F1F1F1" fill-rule="evenodd" transform="translate(115.587 298.05)" />
    <path d="M43.217 195.458L0 195.458L0 193.45L41.2076 193.45L41.2076 0L43.217 0L43.217 195.458L43.217 195.458Z" fill="#F1F1F1" fill-rule="evenodd" transform="translate(486.303 296.255)" />
    <path d="M0 26.5484C0 11.8861 11.8912 0 26.5598 0C41.2285 0 53.1197 11.8861 53.1197 26.5484C53.1197 41.2107 41.2285 53.0968 26.5598 53.0968C11.8912 53.0968 0 41.2107 0 26.5484Z" fill="#427242" fill-rule="evenodd" transform="translate(501.948 202.343)" />
    <path d="M7.95001 22.3905L0 12.1734L4.62347 8.57921L8.38702 13.4166L21.1031 0L25.3549 4.026L7.95001 22.3905L7.95001 22.3905Z" fill="#FFFFFF" fill-rule="evenodd" transform="translate(518.027 217.708)" />
    <path d="M0 26.5484C0 11.8861 11.8913 0 26.5599 0C41.2285 0 53.1197 11.8861 53.1197 26.5484C53.1197 41.2106 41.2285 53.0968 26.5599 53.0968C11.8913 53.0968 0 41.2106 0 26.5484Z" fill="#427242" fill-rule="evenodd" transform="translate(90.032 204.415)" />
    <path d="M7.94998 22.3905L0 12.1734L4.6235 8.57922L8.38702 13.4166L21.1032 0L25.3549 4.02599L7.94998 22.3905L7.94998 22.3905Z" fill="#FFFFFF" fill-rule="evenodd" transform="translate(106.111 219.78)" />
    <path d="M0 26.5483C0 11.8861 11.8913 0 26.5599 0C41.2285 0 53.1197 11.8861 53.1197 26.5483C53.1197 41.2106 41.2285 53.0967 26.5599 53.0967C11.8913 53.0967 0 41.2106 0 26.5483Z" fill="#427242" fill-rule="evenodd" transform="translate(295.99 557.907)" />
    <path d="M7.94998 22.3904L0 12.1733L4.62354 8.57916L8.38699 13.4166L21.1031 0L25.3549 4.02594L7.94998 22.3904L7.94998 22.3904Z" fill="#FFFFFF" fill-rule="evenodd" transform="translate(312.069 573.272)" />
  </g>
</svg>