<?xml version="1.0" encoding="utf-8"?>
<svg width="330" height="122" viewBox="0 0 330 122" fill="none" xmlns="http://www.w3.org/2000/svg">
  <g>
    <path d="M1.02438 28.378C0.341995 26.6211 0.000793457 23.814 0.000793457 19.9564C-0.0292664 14.4484 0.792709 8.96825 2.43788 3.70762C2.74036 2.57609 3.43245 1.58504 4.39366 0.908749C5.54857 0.25502 6.86899 -0.0518074 8.19557 0.0239449C8.82283 -0.0214424 9.45146 0.0912437 10.0234 0.35183C10.4145 0.644154 10.6189 1.12261 10.5596 1.60522C10.3803 3.21104 10.0477 4.79474 9.56647 6.33715C9.11966 8.09386 8.76627 9.6291 8.50632 10.9415C8.19942 12.5447 7.97774 14.1623 7.84221 15.7884C9.02538 12.507 10.6661 9.40701 12.7165 6.57918C14.1463 4.56597 15.9521 2.84406 18.0355 1.50843C19.4754 0.59639 21.131 0.0760078 22.8366 0C25.7043 0 27.1381 1.41328 27.1381 4.24058C27.0226 5.63559 26.8191 7.02145 26.5289 8.39075C26.2765 9.47183 26.0994 10.5694 25.9988 11.6748C25.9988 13.2134 26.5532 13.983 27.6499 13.983C28.8685 13.983 30.4587 13.0176 32.4206 11.0868C32.8727 10.5709 33.5181 10.2618 34.2058 10.233C34.7612 10.223 35.2785 10.5125 35.5584 10.9903C35.9198 11.5951 36.0936 12.2925 36.058 12.9954C36.1378 14.3892 35.6629 15.7578 34.7358 16.8061C33.464 18.1047 32.0013 19.2035 30.3978 20.0657C28.7891 20.9532 26.9794 21.4181 25.1397 21.4165C22.8061 21.4165 21.0271 20.8106 19.8146 19.6354C18.56 18.3591 17.8976 16.6199 17.9867 14.8374C17.9872 14.1745 18.0545 13.5129 18.1877 12.8627C18.273 11.9843 18.3217 11.3905 18.3217 11.0876C18.3217 10.385 18.078 10.0334 17.5906 10.0334C16.9265 10.0334 16.0613 10.7728 14.9768 12.2385C13.7004 14.0599 12.6239 16.0116 11.7659 18.0609C10.6929 20.5265 9.83269 23.0781 9.19469 25.6884C8.70726 27.7546 8.14064 29.142 7.50699 29.8691C6.71086 30.6497 5.61148 31.0459 4.49715 30.9534C2.86436 30.9693 1.70677 30.1107 1.02438 28.378Z" fill="#045E04" fill-rule="evenodd" transform="translate(71.315 61.3)" />
    <path d="M31.8599 16.7546C32.2233 17.4181 32.3942 18.169 32.3534 18.9235C32.3534 20.6805 31.9391 22.0376 31.0983 23.0009C29.1498 25.2256 26.8055 27.0741 24.183 28.4535C21.2728 30.102 17.9787 30.9626 14.6295 30.9496C9.99081 30.9496 6.39403 29.6995 3.83912 27.1994C1.28421 24.6993 0.00471497 21.2783 0.000656128 16.9363C-0.0237045 13.9998 0.633064 11.0974 1.91994 8.45435C3.12437 5.9771 4.96293 3.85848 7.25108 2.31117C9.52089 0.773659 12.2123 -0.0302887 14.9585 0.00894547C17.2337 -0.0957336 19.4543 0.721905 21.1122 2.27481C22.6557 3.78943 23.4275 5.84123 23.4275 8.43022C23.4627 11.3658 22.2765 14.1854 20.1495 16.2214C17.9683 18.3904 14.274 20.111 9.06673 21.3833C10.1716 23.4028 12.2675 24.4125 15.3545 24.4125C17.3367 24.4125 19.5951 23.7218 22.1297 22.3405C24.6556 20.9714 26.892 19.1303 28.716 16.9182C29.139 16.3529 29.799 16.0114 30.5073 15.9912C31.064 15.983 31.5816 16.2751 31.8599 16.7546ZM9.69428 9.25418C8.52216 11.3411 7.94101 13.7049 8.01267 16.0942C8.01267 16.0942 8.01267 16.2457 8.01267 16.2457C10.2455 15.7985 12.3473 14.8539 14.1603 13.483C15.5403 12.4839 16.3737 10.9027 16.4146 9.20572C16.4614 8.45906 16.2121 7.72392 15.7201 7.15795C15.2318 6.64351 14.5419 6.36687 13.8313 6.40064C12.1984 6.41679 10.8194 7.36798 9.69428 9.25418C9.69428 9.25418 9.69428 9.25418 9.69428 9.25418Z" fill="#045E04" transform="translate(100.286 61.315)" />
    <path d="M2.43726 28.1601C0.80439 26.179 0.000137329 23.5981 0.000137329 20.3931C-0.0124283 16.9233 0.824043 13.5029 2.43741 10.4266C3.96112 7.41765 6.19608 4.82107 8.95061 2.8596C11.4538 1.02165 14.4786 0.0204582 17.5902 0C18.5589 0 19.2048 0.187813 19.5399 0.557381C19.9657 1.15682 20.249 1.84459 20.3685 2.56879C21.3266 2.38913 22.2997 2.29988 23.2747 2.30222C25.4397 2.30222 26.5202 3.06963 26.5161 4.60444C26.3355 6.81705 26.0057 9.01515 25.5291 11.1839C24.5096 16.2245 23.9998 19.7324 23.9998 21.7075C23.9743 22.2766 24.1512 22.8364 24.4994 23.2887C24.8101 23.6816 25.2886 23.9061 25.7911 23.8946C26.6258 23.8946 27.6189 23.3614 28.8375 22.2891C30.5555 20.6475 32.1691 18.9013 33.6691 17.0605C34.0914 16.4976 34.7484 16.1565 35.4543 16.1336C36.0196 16.1293 36.5416 16.4342 36.813 16.9273C37.1765 17.5908 37.3473 18.3417 37.3065 19.0962C37.3989 20.5616 36.9529 22.0106 36.0514 23.1736C34.3721 25.2867 32.4384 27.1871 30.2937 28.8322C28.2628 30.367 26.3009 31.1344 24.4081 31.1344C22.9387 31.1287 21.5195 30.6024 20.4051 29.6501C19.1336 28.5793 18.1829 27.1813 17.6573 25.6091C15.3664 29.2926 12.4784 31.1344 8.9933 31.1344C6.45892 31.2245 4.02986 30.1225 2.43724 28.1601C2.43724 28.1601 2.43726 28.1601 2.43726 28.1601ZM14.1476 22.762C15.1226 21.4129 15.7767 19.8613 16.0608 18.2242C16.0608 18.2242 18.4979 6.10724 18.4979 6.10724C16.5942 6.16811 14.7749 6.90289 13.3678 8.17924C11.7224 9.62857 10.443 11.4425 9.63286 13.4743C8.69914 15.6813 8.22452 18.0534 8.23763 20.4476C8.15512 21.5221 8.44777 22.592 9.06624 23.4769C9.63179 24.1375 10.4735 24.5 11.345 24.4584C12.3117 24.4664 13.2398 23.901 14.1293 22.762C14.1293 22.762 14.1476 22.762 14.1476 22.762Z" fill="#045E04" transform="translate(126.12 61.16)" />
    <path d="M39.1218 47.9593C39.4901 48.6212 39.6633 49.3729 39.6214 50.1283C39.7137 51.5937 39.2677 53.0426 38.3663 54.2056C36.6215 56.3882 34.5979 58.3353 32.3466 59.9975C30.2372 61.4691 27.7088 62.2293 25.1328 62.1664C21.7411 62.1664 19.0075 61.2011 16.9319 59.2705C14.8563 57.3399 13.8185 54.7751 13.8185 51.5762C13.8185 49.8677 14.7019 48.6399 16.4688 47.8927C18.0311 47.3056 19.4512 46.3972 20.6363 45.2269C21.4754 44.2731 21.9234 43.0405 21.8914 41.7736C21.9384 41.1429 21.764 40.5156 21.3979 39.9985C21.1072 39.6208 20.6577 39.3973 20.1793 39.3926C18.9912 39.3926 17.6752 40.2469 16.2434 41.9614C14.6181 43.977 13.2717 46.2 12.2404 48.5712C11.009 51.2469 10.0339 54.0319 9.32806 56.8895C8.84065 58.9554 8.28011 60.3428 7.64037 61.0699C7.00064 61.7969 6.0014 62.1543 4.63052 62.1543C3.43097 62.238 2.27966 61.6702 1.62068 60.67C0.980957 59.6885 0.548355 58.1618 0.32901 56.1019C0.10968 54.042 0 51.0128 0 47.0142C0.0327301 39.9285 0.730225 32.86 2.08347 25.9018C3.46872 18.5903 5.51799 12.4445 8.23132 7.46446C10.9446 2.48439 14.1941 -0.00362206 17.9798 0.000417709C19.9666 -0.0232697 21.8279 0.963839 22.9149 2.61768C24.1761 4.3504 24.7976 6.5981 24.7976 9.36076C24.7976 13.8036 23.4978 18.396 20.8982 23.1377C18.2986 27.8795 14.0641 33.4392 8.19475 39.8167C8.0607 42.1008 7.99977 44.4454 7.99977 46.8567C10.1119 41.3717 12.5369 37.3913 15.2746 34.9154C18.0123 32.4395 20.5712 31.2016 22.9515 31.2016C24.9721 31.1247 26.9228 31.9436 28.2766 33.4371C29.6304 34.9573 30.3514 36.9328 30.2933 38.9625C30.3241 41.3104 29.6907 43.6196 28.4655 45.6268C27.2469 47.6463 25.1307 49.4437 22.1167 51.0189C22.256 52.1461 22.836 53.1734 23.7313 53.8785C24.6618 54.6118 25.8224 54.9958 27.0093 54.9629C28.4782 54.9261 29.8854 54.3673 30.9757 53.3877C32.7992 51.7789 34.4828 50.0198 36.0083 48.129C36.43 47.5654 37.0874 47.224 37.7935 47.202C38.341 47.1988 38.8481 47.4879 39.1218 47.9593C39.1218 47.9593 39.1218 47.9593 39.1218 47.9593ZM13.9525 9.88786C12.7624 12.8524 11.8229 15.9104 11.1437 19.0301C10.1839 23.1669 9.44363 27.351 8.9259 31.5651C11.6523 28.3971 13.943 24.8827 15.7376 21.1142C17.5249 17.3458 18.4185 13.9268 18.4185 10.8572C18.4672 9.76306 18.3081 8.66959 17.9493 7.63409C17.6447 6.8889 17.206 6.51328 16.6272 6.51328C15.8148 6.51329 14.9232 7.63815 13.9525 9.88786Z" fill="#045E04" transform="translate(158.516 30.111)" />
    <path d="M47.7066 17.1736C48.0721 17.8365 48.2451 18.5875 48.2062 19.3425C48.3002 20.8091 47.8517 22.2593 46.945 23.4199C45.2011 25.6093 43.1491 27.5376 40.8522 29.1452C38.6624 30.6376 36.0613 31.4186 33.4068 31.3807C31.2272 31.4507 29.1337 30.5324 27.7161 28.8846C25.3877 30.4464 22.6582 31.3126 19.8504 31.3807C19.2695 39.8626 17.9677 46.9308 15.9449 52.5854C13.9221 58.24 10.9447 61.0794 7.01283 61.1036C4.6326 61.1036 2.86772 60.2494 1.7182 58.5409C0.56868 56.8324 -0.00404358 54.4635 1.52588e-05 51.4343C1.52588e-05 47.1328 0.993149 42.1224 2.9794 36.4032C4.96564 30.684 8.03032 24.3792 12.1734 17.4886C12.1734 11.0869 12.1288 6.64397 12.0394 4.16C11.9665 2.95218 12.5471 1.79744 13.5626 1.13076C14.7351 0.350727 16.1253 -0.0414963 17.5351 0.00994492C18.2535 -0.0484161 18.9691 0.151508 19.5518 0.573387C19.9722 0.942955 20.2037 1.68209 20.2403 2.77867C20.2768 3.87525 20.2403 4.68103 20.3134 5.20206C21.4485 3.69075 22.8604 2.40608 24.4747 1.41552C25.8055 0.660641 27.3112 0.263882 28.8433 0.264404C31.2233 0.22171 33.478 1.32243 34.8995 3.22094C36.4633 5.20409 37.2453 7.79308 37.2453 10.9879C37.2464 13.2917 36.8679 15.5818 36.1247 17.7657C35.3985 19.9065 34.3486 21.9249 33.0113 23.7515C33.7624 23.9824 34.541 24.1128 35.3266 24.1392C36.8581 24.1139 38.3324 23.5566 39.494 22.564C41.351 20.9707 43.0562 19.2103 44.5876 17.3052C45.0111 16.7437 45.6674 16.4029 46.3728 16.3783C46.9299 16.382 47.4409 16.6867 47.7066 17.1736ZM10.4919 46.9571C11.3895 40.5796 11.8982 34.1538 12.0151 27.7151C10.2281 31.8003 8.72571 36.0028 7.51852 40.2929C6.52971 43.5635 5.97462 46.9485 5.8674 50.3621C5.81404 51.4584 5.98183 52.5543 6.36092 53.5852C6.68993 54.3243 7.07986 54.7 7.51854 54.7C8.70869 54.6796 9.69978 52.0987 10.4919 46.9571ZM24.554 22.4869C25.9584 21.0046 27.0502 19.2578 27.7649 17.3493C28.5584 15.3048 28.9613 13.1309 28.953 10.9394C29.025 9.88255 28.7468 8.83131 28.1609 7.94655C27.6638 7.28329 26.8722 6.90328 26.0406 6.92873C24.4484 6.92873 22.5312 8.5948 20.289 11.927C20.2403 13.8576 20.2159 16.6849 20.2159 20.4088C20.2159 22.4283 20.1956 23.9854 20.155 25.0799C21.8499 24.6641 23.3816 23.7549 24.554 22.4687C24.554 22.4687 24.554 22.4869 24.554 22.4869Z" fill="#045E04" transform="translate(181.753 60.896)" />
    <path d="M36.0605 11.4091C36.3931 12.0849 36.5522 12.8322 36.5235 13.5841C36.5235 15.6884 35.8838 16.9384 34.6043 17.3342C31.788 18.2844 28.8458 18.8152 25.8734 18.9094C25.1972 22.3064 23.4593 25.4042 20.9077 27.7609C18.6404 29.8965 15.6349 31.085 12.5118 31.0809C10.1062 31.1508 7.73708 30.4846 5.72447 29.1725C3.85849 27.9096 2.38196 26.1561 1.45952 24.1076C0.480347 21.9598 -0.016571 19.6257 0.00332642 17.2676C-0.0528717 14.19 0.603806 11.1406 1.92253 8.35565C3.0925 5.87356 4.9236 3.75737 7.21718 2.23658C9.42883 0.76672 12.0329 -0.0099144 14.693 0.0070076C17.7779 -0.106369 20.7515 1.16086 22.7964 3.46033C24.8809 5.845 26.1447 8.8295 26.4034 11.9786C28.9089 11.771 31.3893 11.3308 33.8123 10.6639C34.1141 10.5809 34.4253 10.5361 34.7384 10.5306C35.3162 10.534 35.8362 10.8796 36.0605 11.4091ZM16.7098 22.4234C17.8648 21.0117 18.588 19.3001 18.7935 17.4918C17.439 16.5798 16.3537 15.3249 15.6496 13.8567C14.9264 12.3812 14.5533 10.7604 14.559 9.11895C14.5601 8.41363 14.6254 7.71 14.754 7.01651C14.754 7.01651 14.425 7.01651 14.425 7.01651C12.6621 7.01651 11.1958 7.86066 10.026 9.54895C8.85614 11.2373 8.27122 13.6162 8.27124 16.6858C8.27124 19.1092 8.74648 20.951 9.69695 22.2112C10.4208 23.3606 11.6727 24.0761 13.0358 24.1196C14.4521 24.1207 15.7967 23.5 16.7098 22.4234C16.7098 22.4234 16.7098 22.4234 16.7098 22.4234Z" fill="#045E04" transform="translate(223.602 61.196)" />
    <path d="M1.95578 42.5901C0.651932 40.5706 0 37.8968 0 34.5686C0.0558929 32.0205 0.310516 29.4805 0.761581 26.9714C1.2421 24.0493 1.90546 21.1598 2.74783 18.3197C2.96869 17.2172 3.52112 16.2073 4.33194 15.4238C4.99606 14.8967 6.05011 14.6362 7.50629 14.6362C9.7525 14.6362 10.8776 15.3814 10.8817 16.8718C10.8817 17.9704 10.4633 20.5129 9.62659 24.4994C8.56644 29.3462 8.03638 32.6137 8.03638 34.302C7.98276 35.3385 8.16391 36.3737 8.56644 37.3313C8.88547 38.0149 9.59558 38.4318 10.3516 38.3794C11.1498 38.3794 12.1368 37.8341 13.331 36.7375C15.0213 35.1022 16.6122 33.3684 18.0956 31.5454C18.5172 30.9818 19.1747 30.6404 19.8808 30.6185C20.4446 30.6137 20.965 30.919 21.2334 31.4121C21.5989 32.0751 21.7719 32.826 21.733 33.5811C21.827 35.0477 21.3784 36.4978 20.4718 37.6584C16.089 42.9657 12.0089 45.6193 8.23135 45.6193C5.34741 45.6193 3.25558 44.6096 1.95578 42.5901ZM4.57562 9.00793C3.62268 8.07649 3.11505 6.78478 3.18036 5.45766C3.15884 3.96157 3.83344 2.53947 5.00821 1.60447C6.26645 0.537292 7.87573 -0.0320473 9.52908 0.0050354C10.9514 -0.0519028 12.3506 0.375553 13.4955 1.21673C14.5209 2.02075 15.0891 3.27043 15.0187 4.56707C15.0937 6.14422 14.4649 7.67393 13.3005 8.74741C12.0337 9.82438 10.4019 10.3811 8.737 10.3044C6.8848 10.3044 5.49564 9.86823 4.57562 9.00793Z" fill="#045E04" transform="translate(254.367 46.658)" />
    <path d="M1.02438 28.378C0.34198 26.6212 0.000793457 23.8142 0.000793457 19.9565C-0.0292664 14.4485 0.792694 8.96815 2.4379 3.70752C2.73798 2.57463 3.4306 1.58415 4.39368 0.908699C5.54819 0.253895 6.8689 -0.0529747 8.19559 0.0238991C8.82281 -0.021492 9.45148 0.091198 10.0234 0.35178C10.4133 0.644733 10.6155 1.12349 10.5535 1.60516C10.3775 3.21104 10.047 4.79483 9.56644 6.33721C9.12372 8.09413 8.77032 9.62915 8.50632 10.9416C8.1994 12.5447 7.97775 14.1624 7.84222 15.7886C9.02536 12.507 10.6661 9.40711 12.7165 6.57922C14.1483 4.56554 15.9562 2.84364 18.0416 1.5084C19.4815 0.596424 21.1371 0.0760078 22.8427 0C25.686 0 27.1198 1.4134 27.1442 4.24065C27.1442 5.95315 26.6588 9.04749 25.688 13.5229C24.8797 17.3675 24.4756 19.896 24.4756 21.1077C24.4756 22.865 25.1153 23.7369 26.3948 23.7369C27.2762 23.7369 28.3242 23.2021 29.5387 22.1316C31.2773 20.4972 32.9055 18.7504 34.4129 16.9033C34.8359 16.3378 35.4959 15.9964 36.2042 15.9763C36.7673 15.9741 37.2864 16.2786 37.5568 16.77C37.9202 17.4332 38.0911 18.1842 38.0503 18.9389C38.0503 20.6957 37.636 22.0529 36.7952 23.0165C35.0513 25.2056 32.9993 27.1343 30.7024 28.7418C28.5126 30.2337 25.9115 31.0153 23.257 30.9769C21.0107 30.9769 19.3129 30.3309 18.1634 29.0388C17.0139 27.7461 16.4412 25.8701 16.4452 23.4101C16.5652 21.196 16.8668 18.9956 17.347 16.8305C17.7956 14.9519 18.083 13.0386 18.2061 11.1114C18.2061 10.4084 17.9624 10.0573 17.4749 10.0573C16.9022 10.0573 16.098 10.7959 15.0378 12.2622C13.7981 14.0972 12.7353 16.0446 11.8635 18.0784C10.7683 20.5398 9.89362 23.0919 9.24966 25.7061C8.76224 27.7723 8.20169 29.159 7.56195 29.8866C6.92224 30.6139 5.9169 30.9706 4.55212 30.9706C2.88675 30.9754 1.71085 30.1108 1.02438 28.378Z" fill="#045E04" fill-rule="evenodd" transform="translate(270.842 61.3)" />
    <path d="M14.0382 33.0016C13.9529 35.1887 13.9041 36.9033 13.9041 38.1271C13.8562 40.6047 14.0233 43.0817 14.4037 45.5306C14.7328 47.3078 15.2852 48.58 16.061 49.3475C16.9268 50.1488 18.085 50.5626 19.2658 50.4925C20.1411 50.4503 20.998 50.2275 21.7821 49.8382C22.7461 49.4037 23.6378 48.8255 24.4265 48.1236C24.8132 47.7332 25.3323 47.4999 25.8826 47.4693C26.447 47.4925 26.9474 47.8369 27.1682 48.3539C27.5178 49.0119 27.6898 49.7487 27.6678 50.4925C27.667 51.3252 27.4971 52.1495 27.1683 52.9156C26.8524 53.6905 26.3403 54.3708 25.6817 54.8907C23.5072 56.7369 20.736 57.7415 17.8768 57.72C13.685 57.72 10.6203 55.9772 8.68277 52.4915C6.74527 49.0059 5.77451 44.4559 5.77042 38.8418C5.77042 36.9111 5.83542 34.9603 5.96539 32.9893C5.96539 32.9893 3.38797 32.9893 3.38797 32.9893C2.06583 32.9893 1.17017 32.7469 0.707123 32.2623C0.187988 31.6115 -0.0605774 30.7875 0.0125427 29.96C0.0125427 27.5003 1.00568 26.2765 2.99194 26.2765C2.99194 26.2765 6.76337 26.2765 6.76337 26.2765C7.43271 21.759 8.58466 17.3254 10.1997 13.0508C11.7473 9.06437 13.6117 5.88569 15.7929 3.51481C17.9741 1.14393 20.3219 -0.0273056 22.8362 0.00110626C24.626 -0.0365524 26.2967 0.890244 27.2047 2.4245C28.3238 4.2662 28.8766 6.39327 28.7949 8.54356C28.7949 15.3412 25.9272 21.2623 20.1919 26.307C20.1919 26.307 27.6007 26.307 27.6007 26.307C28.1497 26.2546 28.6971 26.4202 29.1239 26.7675C29.4893 27.2586 29.6547 27.8688 29.5869 28.476C29.5869 31.4971 27.095 33.0117 22.1111 33.0198C22.1111 33.0198 14.0382 33.0016 14.0382 33.0016ZM18.8332 8.76773C17.8279 10.9623 17.054 13.2545 16.524 15.6078C15.7404 18.804 15.1302 22.0399 14.6962 25.3013C17.1648 23.2342 19.1611 20.6667 20.5513 17.7706C21.752 15.4073 22.4234 12.8133 22.5193 10.1672C22.5193 7.57824 22.0339 6.28577 21.0631 6.28981C20.4091 6.28981 19.676 7.11174 18.8636 8.75561C18.8636 8.75561 18.8332 8.76773 18.8332 8.76773Z" fill="#045E04" transform="translate(300.398 34.545)" />
    <path d="M66.9408 61.2032C62.1945 44.9967 44.105 39.2351 29.5372 44.6938C27.7093 39.2412 34.3444 -1.89587 24.7421 0.369999C17.5892 1.63016 2.15614 -3.87094 0.980235 6.37395C0.980235 6.37395 0.980235 38.5929 0.980235 38.5929C0.980235 43.4397 0.62076 48.3895 0.980235 53.1878C2.50952 60.3732 14.622 55.4234 12.0447 48.7954C12.0447 47.5474 12.1422 7.52506 11.801 8.06426C13.9335 8.06426 16.4194 8.13696 18.5336 8.06426C20.1786 13.9349 13.6593 59.8279 23.2981 56.4533C64.4001 29.6446 67.4343 106.581 28.6354 82.317C28.6842 82.3125 28.7331 82.323 28.7756 82.3473C12.0082 73.3746 19.3074 103.007 18.2777 111.489C16.2244 111.373 13.3486 111.707 11.3502 111.489C10.29 103.976 17.6684 72.6295 2.06475 82.4078C-1.6945 92.2347 0.907119 105.012 0.51718 115.729C0.876655 120.613 8.87649 119.189 12.2397 119.189C34.4358 123.048 28.41 108.69 29.068 93.8159C48.7416 100.692 73.4601 82.9046 66.9408 61.2032ZM20.9342 111.27C20.9342 111.27 20.7148 111.27 20.7148 111.27C20.7793 111.259 20.8453 111.259 20.9098 111.27C20.9098 111.27 20.9342 111.27 20.9342 111.27Z" fill="#045E04" />
  </g>
</svg>