<?xml version="1.0" encoding="utf-8"?>
<svg width="933" height="884" viewBox="0 0 933 884" fill="none" xmlns="http://www.w3.org/2000/svg">
  <g>
    <g transform="matrix(-1 0 -0 -1 909.001 749)">
      <path d="M449.001 -6.10352e-05L898.002 607.001L6.10352e-05 607.001L449.001 -6.10352e-05Z" />
      <path d="M442.781 8.40778L449.001 0L455.22 8.40778L890.605 597.001L898.002 607.001L885.563 607.001L12.4385 607.001L0 607.001L7.39703 597.001L442.781 8.40778ZM19.8355 597.001L449.001 16.8155L878.166 597.001L19.8355 597.001Z" fill="#427242" fill-rule="evenodd" />
    </g>
    <g>
      <path d="M337.205 168.547C337.243 223.703 310.264 275.369 264.988 306.858C258.705 311.254 252.126 315.211 245.297 318.699C243.031 319.862 240.749 320.966 238.424 322.012C236.331 322.972 234.225 323.872 232.088 324.729C205.593 335.456 176.811 339.294 148.43 335.887C143.518 335.307 138.67 334.507 133.883 333.49C133.68 333.447 133.462 333.403 133.259 333.36C123.236 331.24 113.433 328.189 103.977 324.25C25.858 291.828 -16.139 206.546 5.79114 124.869C27.7214 43.1916 106.789 -9.59396 190.646 1.45871C274.503 12.5134 337.186 83.9852 337.195 168.554C337.195 168.554 337.205 168.547 337.205 168.547Z" fill="#F1F1F1" fill-rule="evenodd" />
      <path d="M83.6872 14.8935C83.5418 14.717 83.382 14.5588 83.2224 14.3988C64.4782 -4.52464 33.9923 -4.83495 14.8658 13.7005C14.7643 13.789 14.6771 13.8747 14.5898 13.9638C14.4735 14.0646 14.3719 14.1656 14.2698 14.2693C5.12903 23.386 -0.00561523 35.7653 0 48.6735C0 48.6735 0 79.1855 0 79.1855C0.00524902 82.7931 2.92969 85.7174 6.53906 85.7231C6.53906 85.7231 90.8222 85.7231 90.8222 85.7231C94.4315 85.7174 97.3561 82.7936 97.3615 79.1855C97.3615 79.1855 97.3615 48.6735 97.3615 48.6735C97.3738 36.0622 92.4685 23.945 83.6877 14.8938C83.6877 14.8938 83.6872 14.8935 83.6872 14.8935Z" fill="#000000" fill-rule="evenodd" transform="translate(115.99 122.198)" />
      <path d="M0 35.6833C0 15.9771 15.9794 0 35.691 0C55.4027 0 71.3822 15.9771 71.3822 35.6833C71.3822 55.3927 55.4027 71.371 35.691 71.371C15.9794 71.371 0 55.3927 0 35.6833Z" fill="#FFB7B7" fill-rule="evenodd" transform="translate(130.933 136.247)" />
      <path d="M76.2344 39.8016C76.2344 39.8016 72.0204 10.3671 72.0204 10.3671C71.8903 9.46397 71.4295 8.63829 70.7268 8.05589C70.49 7.86586 70.2312 7.7065 69.9563 7.57594C48.3768 -2.52068 26.4929 -2.52068 4.91333 7.54803C4.62524 7.68129 4.35645 7.85175 4.11377 8.05589C4.0271 8.12909 3.93994 8.2157 3.85254 8.30392C3.27576 8.89799 2.91724 9.67236 2.83508 10.4974C2.83508 10.4974 0.0161133 39.9771 0.0161133 39.9771C-0.0800781 40.9957 0.25769 42.0096 0.946289 42.7653C1.49512 43.3703 2.23303 43.77 3.0387 43.8983C3.2345 43.9386 3.43445 43.961 3.63477 43.9586C3.63477 43.9586 10.7842 43.9586 10.7842 43.9586C12.1947 43.9535 13.4774 43.14 14.0829 41.8633C14.0829 41.8633 17.1779 35.2396 17.1779 35.2396C17.5847 34.3562 18.5288 33.852 19.4888 34.0047C20.4487 34.1575 21.1906 34.9278 21.3046 35.8949C21.3046 35.8949 21.9148 40.7745 21.9148 40.7745C22.1492 42.591 23.6902 43.9503 25.5193 43.9586C25.5193 43.9586 72.6447 43.9586 72.6447 43.9586C73.2616 43.961 73.8683 43.8004 74.4031 43.4913C74.7754 43.2889 75.1098 43.0238 75.3916 42.707C76.0808 41.9071 76.3883 40.8466 76.2344 39.8016C76.2344 39.8016 76.2344 39.8016 76.2344 39.8016Z" fill="#000000" fill-rule="evenodd" transform="translate(127.905 129.092)" />
      <path d="M30.9959 16.2296C30.9959 16.2296 41.1099 50.0822 41.1099 50.0822C34.8272 54.4776 28.2479 58.4349 21.4193 61.9251C19.1528 63.0879 16.8711 64.1921 14.5465 65.2368C14.5465 65.2368 4.0686 20.3276 4.0686 20.3276L0 2.90735L26.1568 0L30.9959 16.2296Z" fill="#FFB7B7" fill-rule="evenodd" transform="translate(223.888 256.768)" />
      <path d="M30.5312 0L29.6591 45.7382C29.6591 45.7382 29.2817 65.9777 29.2817 65.9777C19.259 63.8565 9.45592 60.8074 0 56.8687C0 56.8687 3.47314 13.5402 3.47314 13.5402L4.34533 2.61581L30.5312 0Z" fill="#FFB7B7" fill-rule="evenodd" transform="translate(103.987 267.375)" />
      <path d="M154.151 47.9756L127.878 51.9128L128.198 56.2293C128.198 56.2293 131.365 99.7007 131.365 99.7007C104.87 110.425 76.0884 114.268 47.7073 110.858C42.7957 110.277 37.9469 109.476 33.1608 108.462C35.3114 99.4257 37.1719 91.2889 34.8757 89.6889C34.1839 89.2063 33.5281 88.6711 32.9138 88.0911C22.2039 77.8783 26.1568 54.8209 26.1568 54.8209C26.1568 54.8209 6.72791 55.8937 6.72791 55.8937C6.72791 55.8937 0 56.2728 0 56.2728C0 56.2728 2.90637 9.77943 15.9847 9.77943C15.9847 9.77943 31.9695 9.77943 31.9695 9.77943C31.9695 9.77943 108.987 2.51625 108.987 2.51625C108.987 2.51625 130.784 -4.75304 136.597 5.41948C139.649 10.7529 145.083 22.0556 149.574 31.6154C153.642 40.3043 156.941 47.5541 156.941 47.5541C156.941 47.5541 154.151 47.9756 154.151 47.9756Z" fill="#045E04" fill-rule="evenodd" transform="translate(100.732 225.022)" />
      <path d="M337.134 170.398C336.582 224.383 310.163 274.828 266.099 306.032C265.722 306.294 265.33 306.57 264.937 306.846C264.531 307.137 264.109 307.428 263.688 307.704C261.246 309.389 258.756 311.001 256.218 312.541C252.644 314.722 248.986 316.77 245.246 318.687C245.131 318.745 245 318.804 244.883 318.862C242.733 319.967 240.563 321.012 238.374 322.001C238.301 322.03 238.243 322.058 238.17 322.088C237.662 322.32 237.124 322.567 236.601 322.786C232.546 324.587 228.405 326.229 224.191 327.682C220.601 328.945 216.958 330.079 213.263 331.081C205.705 333.165 198.008 334.709 190.23 335.701C183.598 336.554 176.921 337.011 170.235 337.067C169.682 337.081 169.13 337.081 168.578 337.081C164.931 337.081 161.298 336.966 157.709 336.733C154.569 336.53 151.46 336.254 148.379 335.876C143.628 335.31 138.934 334.553 134.312 333.566C134.11 333.537 133.906 333.493 133.702 333.45C133.543 333.421 133.368 333.378 133.208 333.348C128.558 332.374 123.981 331.184 119.491 329.818C115.262 328.538 111.111 327.095 107.037 325.487C105.991 325.081 104.959 324.675 103.927 324.238C101.355 323.162 98.8124 322.044 96.3126 320.838C95.5859 320.504 94.8744 320.156 94.162 319.806C91.7494 318.63 89.3668 317.395 87.0416 316.087C84.2367 314.532 81.4806 312.9 78.7733 311.191C75.3582 309.04 72.0154 306.774 68.775 304.377C9.69995 260.98 -14.5537 184.386 8.77783 114.903C32.1095 45.4202 97.6772 -1.02142 170.975 0.0170975C263.407 1.29999 338.132 77.976 337.134 170.398Z" fill="#F1F1F1" fill-rule="evenodd" transform="translate(595.856 0.006)" />
      <path d="M13.7178 100.99C9.06738 100.018 4.48999 98.8283 0 97.4595C0 97.4595 15.4178 1.87476 15.4178 1.87476L31.3876 1.38243L60.3494 0.462494C60.3494 0.462494 75.201 0 75.201 0C75.201 0 85.7363 46.287 93.7721 98.7242C86.2137 100.807 78.5167 102.355 70.7393 103.344C64.1073 104.201 57.4305 104.654 50.7443 104.708C50.1915 104.727 49.6394 104.727 49.0874 104.727C45.4403 104.727 41.8075 104.608 38.2178 104.376C35.0787 104.175 31.9695 103.896 28.8885 103.52C24.1368 102.952 19.4431 102.2 14.8218 101.207C14.6189 101.179 14.4153 101.137 14.2115 101.094C14.0519 101.066 13.8773 101.018 13.7178 100.99Z" fill="#CBCBCB" fill-rule="evenodd" transform="translate(715.346 232.359)" />
      <path d="M41.4294 102.141C41.2265 102.112 41.0228 102.07 40.8192 102.024C40.6595 101.997 40.4849 101.952 40.3253 101.922C35.675 100.948 31.0976 99.7575 26.6075 98.3917C22.3785 97.115 18.2272 95.6716 14.1534 94.0631C13.1075 93.6558 12.0759 93.2484 11.0436 92.8134C8.47205 91.739 5.92896 90.6179 3.4292 89.413C2.70264 89.0807 1.99097 88.7306 1.27856 88.381C1.27856 88.381 0 16.8101 0 16.8101C0 16.8101 39.2355 0 39.2355 0C39.2355 0 39.3659 1.04375 57.9952 2.3082C61.541 13.8748 41.4294 102.141 41.4294 102.141Z" fill="#045E04" fill-rule="evenodd" transform="translate(688.739 231.429)" />
      <path d="M82.4108 17.1596L75.0144 56.0258C75.0144 56.0258 75.7113 91.1716 75.7113 91.1716C73.5613 92.2752 71.3915 93.3239 69.2019 94.3105C69.1288 94.3401 69.0706 94.3702 68.9982 94.3994C68.4894 94.6306 67.9515 94.8788 67.4287 95.0945C63.3744 96.8978 59.2327 98.541 55.0187 99.9923C51.4291 101.257 47.7866 102.391 44.0909 103.393C36.5326 105.476 28.8357 107.022 21.0582 108.012C14.4263 108.867 7.74951 109.322 1.06311 109.377C1.06311 109.377 0.292603 47.0903 0.292603 47.0903C-1.33447 27.0099 4.05676 13.7303 10.6682 5.12726C45.9073 0.420609 45.1227 0 45.1227 0C45.1227 0 82.4835 16.8101 82.4835 16.8101L82.4108 17.1596Z" fill="#045E04" fill-rule="evenodd" transform="translate(765.028 227.695)" />
      <path d="M30.923 5.60745C30.923 5.60745 28.2635 77.2523 28.2635 77.2523C27.2178 76.8491 26.186 76.4391 25.1537 76.0059C22.5822 74.9305 20.0392 73.81 17.5394 72.6065C16.8129 72.2704 16.1011 71.9233 15.3887 71.5741C12.9763 70.3975 10.5935 69.1612 8.26831 67.8535C5.46362 66.2991 2.7074 64.6674 0 62.9576C0 62.9576 14.1102 0 14.1102 0L30.923 5.60745Z" fill="#045E04" fill-rule="evenodd" transform="translate(674.629 248.24)" />
      <path d="M30.5887 61.432C30.2113 61.6948 29.819 61.9681 29.4265 62.2467C29.0199 62.538 28.5985 62.8267 28.177 63.1017C25.7354 64.7873 23.2456 66.402 20.7076 67.9412C17.1328 70.1223 13.4756 72.1688 9.73572 74.0857C9.62012 74.1452 9.48877 74.2052 9.37256 74.2646C7.15723 75.4003 4.9209 76.4775 2.66345 77.4874C2.66345 77.4874 2.65942 77.4847 2.65942 77.4847L0 5.5947L16.072 0.249313L16.8129 0C16.8129 0 30.5887 61.432 30.5887 61.432Z" fill="#045E04" fill-rule="evenodd" transform="translate(831.367 244.607)" />
      <path d="M29.7832 81.4386C7.81165 74.998 -4.7644 51.9225 1.69385 29.8988C8.15198 7.87292 31.1989 -4.75894 53.1704 1.68056C75.1418 8.12236 87.7179 31.1972 81.2598 53.2217C74.8016 75.2468 51.7548 87.8806 29.7832 81.4386Z" fill="#9F616A" fill-rule="evenodd" transform="translate(723.282 125.102)" />
      <path d="M5.42969 44.6683C5.42969 44.6683 -7.61499 29.3078 6.73413 25.4377C6.73413 25.4377 10.6475 -13.2566 44.5632 4.8016C44.5632 4.8016 91.5236 -2.93852 86.3057 24.1498C86.3057 24.1498 98.0458 17.0758 94.1324 35.1339C94.1324 35.1339 86.564 64.2215 86.564 64.2215C86.564 64.2215 90.2191 45.0079 78.4792 42.4281C78.4792 42.4281 71.9568 38.5587 71.9568 38.5587C71.9568 38.5587 53.6945 56.6162 26.301 34.6898C26.301 34.6898 14.5609 31.8882 15.8654 43.4958C17.1698 55.1039 5.42969 60.842 5.42969 60.842C5.42969 60.842 5.42969 44.6683 5.42969 44.6683Z" fill="#000000" fill-rule="evenodd" transform="translate(717.577 116.241)" />
      <path d="M337.191 168.55C337.229 223.706 310.25 275.372 264.974 306.861C264.567 307.152 264.145 307.443 263.724 307.718C261.282 309.405 258.793 311.017 256.255 312.557C252.68 314.735 249.022 316.785 245.283 318.702C243.016 319.866 240.734 320.97 238.41 322.016C237.828 322.279 237.233 322.552 236.637 322.801C232.583 324.601 228.441 326.243 224.227 327.696C213.22 331.557 201.837 334.244 190.266 335.716C183.086 336.639 175.854 337.1 168.614 337.096C164.967 337.096 161.334 336.981 157.745 336.748C154.606 336.545 151.496 336.269 148.416 335.893C143.46 335.295 138.563 334.497 133.739 333.465C133.579 333.436 133.404 333.391 133.245 333.362C123.222 331.244 113.419 328.194 103.963 324.254C101.391 323.177 98.8484 322.06 96.3486 320.853C93.1954 319.37 90.1051 317.788 87.0776 316.102C15.1212 276.352 -17.6664 190.505 9.4762 112.919C36.6189 35.3312 115.775 -11.3675 196.824 2.39499C277.872 16.157 337.175 86.3607 337.181 168.556C337.181 168.556 337.191 168.55 337.191 168.55Z" fill="#F1F1F1" fill-rule="evenodd" transform="translate(297.912 508.523)" />
      <path d="M0 37.6367C0 16.8505 16.8524 0 37.6411 0C58.4298 0 75.2822 16.8505 75.2822 37.6367C75.2822 58.4203 58.4298 75.2704 37.6411 75.2704C16.8524 75.2704 0 58.4203 0 37.6367Z" fill="#FFB8B8" fill-rule="evenodd" transform="translate(424.264 643.34)" />
      <path d="M14.677 115.989C9.72156 115.393 4.82422 114.592 0 113.561C0 113.561 4.57739 10.577 4.57739 10.577L5.23157 9.89294L14.6039 0L44.4086 0L55.4088 10.6524L56.339 11.5647L79.8656 34.1003C79.8656 34.1003 90.4883 107.792 90.4883 107.792C79.4813 111.653 68.0984 114.341 56.5277 115.814C49.3474 116.74 42.1152 117.199 34.8759 117.194C31.2288 117.194 27.5958 117.078 24.0062 116.847C20.8672 116.642 17.7578 116.367 14.677 115.989Z" fill="#CBCBCB" fill-rule="evenodd" transform="translate(431.66 728.42)" />
      <path d="M9.77979 91.5551C6.62659 90.0733 3.53601 88.4862 0.508789 86.8026C0.203613 58.9039 0 40.3777 0 40.3777C0 40.3777 3.54565 38.214 3.54565 38.214C3.58801 38.1919 3.63159 38.173 3.67615 38.1543C3.67615 38.1543 43.9142 13.7164 43.9142 13.7164L52.3571 0L52.401 0.496704C52.401 0.496704 54.886 29.4105 54.886 29.4105C62.3691 54.9504 67.8162 81.0448 71.176 107.445C68.037 107.247 64.9279 106.97 61.8469 106.593C56.8914 105.997 51.9941 105.196 47.1698 104.168C47.0101 104.135 46.8356 104.093 46.676 104.068C36.6532 101.947 26.85 98.8972 17.394 94.9529C14.8225 93.8789 12.2795 92.7586 9.77979 91.5551Z" fill="#045E04" fill-rule="evenodd" transform="translate(384.491 737.82)" />
      <path d="M37.4858 98.3965C26.479 102.256 15.0958 104.944 3.52539 106.413C1.92175 97.0386 1.33228 87.5181 1.76685 78.0102C4.90601 27.8401 -2.33069 0 0.808228 0C0.808228 0 2.40625 1.24939 2.40625 1.24939L22.155 16.8536L48.1516 26.387L48.1665 26.387L66.0549 32.9383L69.2083 34.1006C69.2083 34.1006 69.2083 35.6009 69.2083 35.6009C69.2223 40.774 69.2515 58.8764 69.5134 83.2594C65.9387 85.4359 62.2814 87.486 58.5416 89.4039C56.2754 90.567 53.9934 91.6713 51.6689 92.7114C51.087 92.9769 50.4918 93.2546 49.8958 93.4983C45.8414 95.3009 41.6998 96.9455 37.4858 98.3965Z" fill="#045E04" fill-rule="evenodd" transform="translate(484.663 737.82)" />
      <path d="M12.1233 40.7012C11.3798 21.9423 39.9506 32.5519 63.8244 30.762C87.6983 28.9716 82.6447 62.0831 82.6447 62.0831C82.6447 62.0831 84.367 60.1136 88.0547 44.1355C91.7422 28.1565 83.3694 12.2321 83.3694 12.2321C80.9035 -4.56219 67.6141 0.821716 67.6141 0.821716C74.0141 3.31207 72.7849 8.63666 72.7849 8.63666C67.3675 -0.859436 54.0781 4.52167 54.0781 4.52167C36.3539 -6.599 18.3906 8.04602 18.3906 8.04602C-3.02112 12.9036 9.53601 29.931 9.53601 29.931C-11.9972 40.8129 9.66858 65.0767 9.66858 65.0767C9.66858 65.0767 12.8668 59.4593 12.1233 40.7012Z" fill="#000000" fill-rule="evenodd" transform="translate(416.626 627.673)" />
      <path d="M0 36.9341C0.552734 24.1639 0.799683 15.9257 0.508789 14.7783C-0.987671 8.78741 19.4437 0.769226 21.3036 0.0571289C21.3459 0.0345459 21.3894 0.0158081 21.4342 0C21.4342 0 25.5907 2.22339 25.5907 2.22339C25.5907 2.22339 27.5377 53.3953 27.5377 53.3953C24.3844 51.9122 21.294 50.3306 18.2666 48.6431C11.9309 45.1407 5.8291 41.2305 0 36.9341C0 36.9341 0 36.9341 0 36.9341Z" fill="#045E04" fill-rule="evenodd" transform="translate(366.733 775.974)" />
      <path d="M26.1567 57.0938C22.5821 59.2748 18.9249 61.3262 15.1851 63.2382C12.9187 64.4012 10.637 65.5044 8.31238 66.5541C7.73059 66.8176 7.13525 67.0919 6.53918 67.3433C6.53918 67.3433 0 2.78613 0 2.78613C0 2.78613 3.82166 0 3.82166 0C3.82166 0 4.17078 0.0869751 4.79517 0.234924C4.79517 0.234924 4.80994 0.234924 4.80994 0.234924C7.87598 0.985168 17.2925 3.48712 22.6983 6.78418C23.905 7.47015 24.9742 8.36731 25.8517 9.44409C26.3858 10.0839 26.6513 10.9057 26.5923 11.7371C26.4185 13.424 29.3249 29.4064 33.6263 52.2585C31.1846 53.9442 28.6949 55.555 26.1567 57.0938Z" fill="#045E04" fill-rule="evenodd" transform="translate(528.019 763.973)" />
      <path d="M62.5091 280.191L0 280.191L0 0L2.90637 0L2.90637 277.286L62.5091 277.286L62.5091 280.191L62.5091 280.191Z" fill="#F1F1F1" fill-rule="evenodd" transform="translate(167.185 431.219)" />
      <path d="M62.5091 282.789L0 282.789L0 279.882L59.603 279.882L59.603 0L62.5091 0L62.5091 282.789L62.5091 282.789Z" fill="#F1F1F1" fill-rule="evenodd" transform="translate(703.389 428.621)" />
      <path d="M0 38.4093C0 17.1948 17.1996 0 38.4163 0C59.6329 0 76.8323 17.1948 76.8323 38.4093C76.8323 59.6238 59.6329 76.8204 38.4163 76.8204C17.1996 76.8204 0 59.6238 0 38.4093Z" fill="#427242" fill-rule="evenodd" transform="translate(726.018 292.75)" />
      <path d="M11.4989 32.3946L0 17.615L6.68738 12.4151L12.131 19.4159L30.5237 0L36.6734 5.82397L11.4989 32.3946L11.4989 32.3946Z" fill="#FFFFFF" fill-rule="evenodd" transform="translate(749.274 314.98)" />
      <path d="M0 38.4125C0 17.1985 17.1996 0 38.4161 0C59.6328 0 76.8324 17.1985 76.8324 38.4125C76.8324 59.6265 59.6328 76.8203 38.4161 76.8203C17.1996 76.8203 0 59.6265 0 38.4125Z" fill="#427242" fill-rule="evenodd" transform="translate(130.222 295.748)" />
      <path d="M11.4988 32.3946L0 17.6151L6.68752 12.4151L12.131 19.4161L30.5237 0L36.6734 5.82419L11.4988 32.3946L11.4988 32.3946Z" fill="#FFFFFF" fill-rule="evenodd" transform="translate(153.479 317.978)" />
      <path d="M0 38.4123C0 17.1974 17.1996 0 38.4161 0C59.6328 0 76.8324 17.1974 76.8324 38.4123C76.8324 59.6232 59.6328 76.8203 38.4161 76.8203C17.1996 76.8203 0 59.6232 0 38.4123Z" fill="#427242" fill-rule="evenodd" transform="translate(428.12 807.18)" />
      <path d="M11.4988 32.3945L0 17.6066L6.6875 12.4106L12.131 19.4055L30.5234 0L36.6733 5.82184L11.4988 32.3945L11.4988 32.3945Z" fill="#FFFFFF" fill-rule="evenodd" transform="translate(451.377 829.41)" />
    </g>
  </g>
</svg>