<svg xmlns="http://www.w3.org/2000/svg" xmlns:xlink="http://www.w3.org/1999/xlink" viewBox="0 0 589.08 212.79"><defs><style>.cls-1{clip-path:url(#clip-path);}</style><clipPath id="clip-path" transform="translate(47.48 7.32)"><path d="M109.87,101c-7.79-26.75-37.48-36.26-61.39-27.25-3-9,7.89-76.9-7.87-73.16-11.74,2.08-37.07-7-39,9.91V63.68c0,8-.59,16.17,0,24.09C4.12,99.63,24,91.46,19.77,80.52c0-2.06.16-68.12-.4-67.23,3.5,0,7.58.12,11.05,0,2.7,9.69-8,85.44,7.82,79.87C105.7,48.91,110.68,175.9,47,135.85a.39.39,0,0,1,.23.05C19.71,121.09,31.69,170,30,184c-3.37-.19-8.09.36-11.37,0C16.89,171.6,29,119.86,3.39,136c-6.17,16.22-1.9,37.31-2.54,55,.59,8.06,13.72,5.71,19.24,5.71,36.43,6.37,26.54-17.33,27.62-41.88C80,166.18,120.57,136.82,109.87,101ZM34.36,183.64H34a.88.88,0,0,1,.32,0Z"/></clipPath></defs><g id="Layer_2" data-name="Layer 2"><g id="Layer_1-2" data-name="Layer 1"><path d="M118.73,148q-1.68-4.35-1.68-13.9a88.69,88.69,0,0,1,4-26.82,8.26,8.26,0,0,1,3.21-4.62,11.3,11.3,0,0,1,6.24-1.46,6.14,6.14,0,0,1,3,.54,2.25,2.25,0,0,1,.88,2.07,42,42,0,0,1-1.63,7.81q-1.1,4.35-1.74,7.6a76.6,76.6,0,0,0-1.09,8,61.45,61.45,0,0,1,8-15.2,31.75,31.75,0,0,1,8.73-8.37,16,16,0,0,1,7.88-2.49q7.06,0,7.06,7a55.19,55.19,0,0,1-1,6.85,39.87,39.87,0,0,0-.87,5.42c0,2.54.91,3.81,2.71,3.81q3,0,7.83-4.78a4.12,4.12,0,0,1,2.93-1.41,2.52,2.52,0,0,1,2.22,1.25,5.9,5.9,0,0,1,.82,3.31,8.77,8.77,0,0,1-2.17,6.29,29.57,29.57,0,0,1-7.12,5.38,17.76,17.76,0,0,1-8.63,2.23c-3.83,0-6.75-1-8.74-2.94a10.58,10.58,0,0,1-3-7.92,16.39,16.39,0,0,1,.33-3.26c.14-1.45.22-2.43.22-2.93q0-1.74-1.2-1.74c-1.09,0-2.51,1.22-4.29,3.64a51.28,51.28,0,0,0-5.27,9.61,78.19,78.19,0,0,0-4.22,12.59c-.8,3.41-1.73,5.7-2.77,6.9a6.29,6.29,0,0,1-4.94,1.79Q120.41,152.29,118.73,148Z" transform="translate(47.48 7.32)"/><path d="M216.89,128.84a6.73,6.73,0,0,1,.81,3.58c0,2.9-.68,5.14-2.06,6.73a39.61,39.61,0,0,1-11.35,9,31.43,31.43,0,0,1-15.68,4.12q-11.42,0-17.71-6.19t-6.3-16.94a31.53,31.53,0,0,1,3.15-14A25.89,25.89,0,0,1,176.5,105a21.91,21.91,0,0,1,12.65-3.8,13.8,13.8,0,0,1,10.1,3.74q3.8,3.75,3.8,10.16a17.56,17.56,0,0,1-5.38,12.86q-5.37,5.37-18.19,8.52,2.72,5,10.32,5,4.88,0,11.12-3.42a36.68,36.68,0,0,0,10.81-8.95,3.8,3.8,0,0,1,2.94-1.53A2.52,2.52,0,0,1,216.89,128.84Zm-36.38-12.38a21.82,21.82,0,0,0-2.76,11.29V128a24.74,24.74,0,0,0,10.09-4.56,9,9,0,0,0,3.7-7.06A4.72,4.72,0,0,0,190.4,113a4,4,0,0,0-3.1-1.25Q183.28,111.79,180.51,116.46Z" transform="translate(47.48 7.32)"/><path d="M211,147.41c-2.68-3.27-4-7.53-4-12.82a35.3,35.3,0,0,1,4-16.45,34.38,34.38,0,0,1,10.69-12.49,24.14,24.14,0,0,1,14.18-4.72c1.59,0,2.65.31,3.2.92a8,8,0,0,1,1.36,3.32,25.41,25.41,0,0,1,4.77-.44q5.33,0,5.32,3.8a81.92,81.92,0,0,1-1.62,10.86q-2.51,12.48-2.51,17.37a4,4,0,0,0,.82,2.61,2.62,2.62,0,0,0,2.12,1c1.37,0,3-.88,5-2.65a94.34,94.34,0,0,0,7.93-8.63,3.81,3.81,0,0,1,2.93-1.53,2.52,2.52,0,0,1,2.23,1.31,6.73,6.73,0,0,1,.81,3.58,10,10,0,0,1-2.06,6.73,54.37,54.37,0,0,1-9.45,9.34q-5,3.8-9.66,3.8a10.14,10.14,0,0,1-6.57-2.45,14.9,14.9,0,0,1-4.51-6.67q-5.64,9.12-14.22,9.12A13.22,13.22,0,0,1,211,147.41Zm19.22-8.91a18.11,18.11,0,0,0,3.14-7.49l4-20a13.12,13.12,0,0,0-8.42,3.42,23,23,0,0,0-6.13,8.74,29.27,29.27,0,0,0-2.29,11.51,7.73,7.73,0,0,0,1.36,5,4.62,4.62,0,0,0,3.74,1.62Q228,141.32,230.19,138.5Z" transform="translate(47.48 7.32)"/><path d="M324.38,128.84a6.64,6.64,0,0,1,.82,3.58,10,10,0,0,1-2.06,6.73,52.93,52.93,0,0,1-9.88,9.56,19.77,19.77,0,0,1-11.84,3.58q-8.35,0-13.46-4.78t-5.11-12.7q0-4.23,4.35-6.08a19.48,19.48,0,0,0,6.84-4.4,8.34,8.34,0,0,0,2.06-5.7,4.51,4.51,0,0,0-.81-2.93,2.55,2.55,0,0,0-2-1c-1.95,0-4.11,1.41-6.46,4.24a47.72,47.72,0,0,0-6.57,10.91,77.31,77.31,0,0,0-4.78,13.73c-.8,3.41-1.72,5.7-2.77,6.9s-2.69,1.79-4.94,1.79a5.45,5.45,0,0,1-4.94-2.45c-1.05-1.62-1.76-4.14-2.12-7.54s-.54-8.4-.54-15a188.1,188.1,0,0,1,3.42-34.85Q267,74.33,273.68,62t16-12.32A9.54,9.54,0,0,1,297.78,54c2.07,2.86,3.09,6.57,3.09,11.13q0,11-6.4,22.74t-20.85,27.53c-.22,3.77-.32,7.64-.32,11.62q5.2-13.58,11.94-19.71t12.6-6.13a11.19,11.19,0,0,1,8.74,3.69,13.19,13.19,0,0,1,3.31,9.12,20.68,20.68,0,0,1-3,11q-3,5-10.42,8.9a7.13,7.13,0,0,0,2.65,4.72,8.29,8.29,0,0,0,5.38,1.79,10.09,10.09,0,0,0,6.51-2.6,71,71,0,0,0,8.26-8.68,3.8,3.8,0,0,1,2.93-1.53A2.5,2.5,0,0,1,324.38,128.84ZM283.07,66a94.82,94.82,0,0,0-4.61,15.09,199.83,199.83,0,0,0-3.64,20.69A77.63,77.63,0,0,0,286,84.53q4.4-9.33,4.4-16.93a14.38,14.38,0,0,0-.77-5.32c-.5-1.23-1.22-1.85-2.17-1.85Q285.46,60.43,283.07,66Z" transform="translate(47.48 7.32)"/><path d="M376.61,128.84a6.73,6.73,0,0,1,.82,3.58,9.94,9.94,0,0,1-2.07,6.73,48,48,0,0,1-10,9.45,21.08,21.08,0,0,1-12.22,3.69,11.79,11.79,0,0,1-9.34-4.12,24.14,24.14,0,0,1-12.91,4.12q-1.43,21-6.41,35t-14.66,14.06q-5.86,0-8.69-4.23t-2.82-11.73q0-10.65,4.89-24.81t15.09-31.22q0-15.85-.22-22a5.59,5.59,0,0,1,2.5-5,11,11,0,0,1,6.52-1.85,4.94,4.94,0,0,1,3.31.93c.69.61,1.07,1.83,1.13,3.64s0,3.14.12,4a24.74,24.74,0,0,1,6.83-6.25,14.46,14.46,0,0,1,7.17-1.9,12.12,12.12,0,0,1,9.94,4.88q3.85,4.91,3.85,12.82a34.86,34.86,0,0,1-1.84,11.19,36.74,36.74,0,0,1-5.11,9.88,14.53,14.53,0,0,0,3.8.64,10.77,10.77,0,0,0,6.84-2.6,65.4,65.4,0,0,0,8.36-8.68,3.83,3.83,0,0,1,2.93-1.53A2.51,2.51,0,0,1,376.61,128.84ZM315.53,178a263.46,263.46,0,0,0,2.5-31.76A160.42,160.42,0,0,0,310.65,167a64.75,64.75,0,0,0-2.71,16.62,13.58,13.58,0,0,0,.81,5.32c.54,1.22,1.18,1.84,1.9,1.84Q313.58,190.73,315.53,178Zm23.08-40.39a25.18,25.18,0,0,0,5.27-8.48,29.08,29.08,0,0,0,1.95-10.58,8,8,0,0,0-1.3-4.94,4.18,4.18,0,0,0-3.48-1.68q-3.92,0-9.44,8.25-.12,4.78-.12,14,0,5-.1,7.71A14.4,14.4,0,0,0,338.61,137.58Z" transform="translate(47.48 7.32)"/><path d="M426.18,119.82a7.52,7.52,0,0,1,.76,3.59q0,5.21-3.15,6.19a49.51,49.51,0,0,1-14.33,2.6,27.13,27.13,0,0,1-8.15,14.61,20,20,0,0,1-13.78,5.48,19.29,19.29,0,0,1-11.14-3.15,20,20,0,0,1-7-8.36A26.8,26.8,0,0,1,367,129.49a33.12,33.12,0,0,1,3.15-14.71,24.78,24.78,0,0,1,8.69-10.1A21.83,21.83,0,0,1,391.11,101a16.92,16.92,0,0,1,13.3,5.7,24.47,24.47,0,0,1,5.92,14.06,66.17,66.17,0,0,0,12.16-2.17,6.11,6.11,0,0,1,1.52-.22A2.37,2.37,0,0,1,426.18,119.82ZM394.42,138a15.69,15.69,0,0,0,3.42-8.14,15.09,15.09,0,0,1-5.16-6,17.71,17.71,0,0,1-1.79-7.82,19.31,19.31,0,0,1,.32-3.47h-.54q-4.34,0-7.22,4.18t-2.88,11.78q0,6,2.34,9.12a6.72,6.72,0,0,0,5.48,3.15A7.88,7.88,0,0,0,394.42,138Z" transform="translate(47.48 7.32)"/><path d="M420.7,147.29q-3.21-5-3.21-13.24a81.34,81.34,0,0,1,1.25-12.54A117.52,117.52,0,0,1,422,107.23a9.16,9.16,0,0,1,2.6-4.78c1.09-.87,2.82-1.3,5.21-1.3q5.53,0,5.54,3.69,0,2.72-2.06,12.59-2.61,12-2.61,16.18a11.44,11.44,0,0,0,.87,5,3,3,0,0,0,2.93,1.73c1.31,0,2.93-.9,4.89-2.71a97.68,97.68,0,0,0,7.82-8.57,3.8,3.8,0,0,1,2.93-1.53,2.5,2.5,0,0,1,2.22,1.31,6.73,6.73,0,0,1,.82,3.58,9.94,9.94,0,0,1-2.07,6.73Q440.3,152.29,431,152.29,423.9,152.29,420.7,147.29ZM425,91.86A7.69,7.69,0,0,1,422.71,86a8,8,0,0,1,3-6.36A11.05,11.05,0,0,1,433.13,77a10.26,10.26,0,0,1,6.51,2,6.59,6.59,0,0,1,2.5,5.53,8.84,8.84,0,0,1-2.82,6.9A10.76,10.76,0,0,1,431.83,94C428.79,94,426.51,93.28,425,91.86Z" transform="translate(47.48 7.32)"/><path d="M446.21,148q-1.68-4.35-1.68-13.9a88.69,88.69,0,0,1,4-26.82,8.21,8.21,0,0,1,3.21-4.62,11.27,11.27,0,0,1,6.24-1.46,6.14,6.14,0,0,1,3,.54,2.24,2.24,0,0,1,.87,2.07,41.63,41.63,0,0,1-1.62,7.81q-1.09,4.35-1.74,7.6a76.6,76.6,0,0,0-1.09,8,61.45,61.45,0,0,1,8-15.2,31.77,31.77,0,0,1,8.74-8.37,16,16,0,0,1,7.88-2.49q7,0,7.06,7,0,4.24-2.39,15.32Q484.7,133,484.7,136c0,2.9,1.05,4.34,3.15,4.34q2.17,0,5.16-2.65a89.3,89.3,0,0,0,8-8.63,3.8,3.8,0,0,1,2.94-1.53,2.52,2.52,0,0,1,2.22,1.31,6.73,6.73,0,0,1,.81,3.58c0,2.9-.68,5.14-2.06,6.73a48,48,0,0,1-10,9.45,21.08,21.08,0,0,1-12.22,3.69q-5.53,0-8.36-3.2t-2.82-9.29A67.24,67.24,0,0,1,473,128.94a56.3,56.3,0,0,0,1.41-9.44q0-1.74-1.2-1.74c-.94,0-2.26,1.22-4,3.64A58,58,0,0,0,464,131a75.51,75.51,0,0,0-4.29,12.59c-.8,3.41-1.72,5.7-2.77,6.9s-2.7,1.79-4.94,1.79Q447.9,152.29,446.21,148Z" transform="translate(47.48 7.32)"/><path d="M516.08,111.47c-.14,3.61-.22,6.44-.22,8.46a71.09,71.09,0,0,0,.82,12.22q.81,4.4,2.72,6.3a7.1,7.1,0,0,0,5.26,1.89,10.37,10.37,0,0,0,4.13-1.08,17.08,17.08,0,0,0,4.34-2.83,3.64,3.64,0,0,1,2.39-1.08,2.4,2.4,0,0,1,2.11,1.46,7.11,7.11,0,0,1,.82,3.53,10.22,10.22,0,0,1-.82,4,8,8,0,0,1-2.44,3.26,19.5,19.5,0,0,1-12.81,4.67q-10.32,0-15.09-8.63t-4.78-22.53q0-4.78.32-9.66H498.6c-2.17,0-3.64-.4-4.4-1.2a5.36,5.36,0,0,1-1.14-3.8c0-4.06,1.63-6.08,4.89-6.08h6.19a106,106,0,0,1,5.64-21.83q3.81-9.87,9.18-15.74T530.52,57a8.12,8.12,0,0,1,7.17,4,18.2,18.2,0,0,1,2.61,10.1q0,16.83-14.12,29.32h12.16a3.43,3.43,0,0,1,2.5.76,4,4,0,0,1,.76,2.82q0,7.48-12.27,7.5Zm7.87-40a57.61,57.61,0,0,0-3.79,11.29,151.4,151.4,0,0,0-3,16,37.2,37.2,0,0,0,9.61-12.43A30.25,30.25,0,0,0,530,73.78q0-6.41-2.39-6.4Q526,67.38,524,71.45Z" transform="translate(47.48 7.32)"/><path d="M109.87,101c-7.79-26.75-37.48-36.26-61.39-27.25-3-9,7.89-76.9-7.87-73.16-11.74,2.08-37.07-7-39,9.91V63.68c0,8-.59,16.17,0,24.09C4.12,99.63,24,91.46,19.77,80.52c0-2.06.16-68.12-.4-67.23,3.5,0,7.58.12,11.05,0,2.7,9.69-8,85.44,7.82,79.87C105.7,48.91,110.68,175.9,47,135.85a.39.39,0,0,1,.23.05C19.71,121.09,31.69,170,30,184c-3.37-.19-8.09.36-11.37,0C16.89,171.6,29,119.86,3.39,136c-6.17,16.22-1.9,37.31-2.54,55,.59,8.06,13.72,5.71,19.24,5.71,36.43,6.37,26.54-17.33,27.62-41.88C80,166.18,120.57,136.82,109.87,101ZM34.36,183.64H34a.88.88,0,0,1,.32,0Z" transform="translate(47.48 7.32)"/><g class="cls-1"><rect width="171.87" height="212.79"/></g></g></g></svg>