<?xml version="1.0" encoding="utf-8"?>
<svg width="68.007" height="119.825" viewBox="0 0 68.007 119.825" fill="none" xmlns="http://www.w3.org/2000/svg">
  <path d="M66.9408 61.2032C62.1945 44.9967 44.105 39.2351 29.5372 44.6938C27.7093 39.2412 34.3444 -1.89587 24.7421 0.369999C17.5892 1.63016 2.15614 -3.87094 0.980232 6.37395C0.980232 6.37395 0.980232 38.5929 0.980232 38.5929C0.980232 43.4397 0.620758 48.3895 0.980232 53.1878C2.50952 60.3732 14.622 55.4234 12.0447 48.7954C12.0447 47.5474 12.1422 7.52506 11.801 8.06426C13.9335 8.06426 16.4194 8.13696 18.5336 8.06426C20.1786 13.9349 13.6593 59.8279 23.2981 56.4533C64.4001 29.6446 67.4343 106.581 28.6354 82.317C28.6842 82.3125 28.7331 82.323 28.7756 82.3473C12.0082 73.3746 19.3074 103.007 18.2777 111.489C16.2244 111.373 13.3486 111.707 11.3502 111.489C10.29 103.976 17.6684 72.6295 2.06475 82.4078C-1.6945 92.2347 0.90712 105.012 0.517181 115.729C0.876656 120.613 8.8765 119.189 12.2397 119.189C34.4358 123.048 28.41 108.69 29.068 93.8159C48.7416 100.692 73.4601 82.9046 66.9408 61.2032ZM20.9342 111.27C20.9342 111.27 20.7148 111.27 20.7148 111.27C20.7793 111.259 20.8453 111.259 20.9098 111.27C20.9098 111.27 20.9342 111.27 20.9342 111.27Z" fill="#045E04" />
</svg>